{
	"patcher" : 	{
		"fileversion" : 1,
		"appversion" : 		{
			"major" : 7,
			"minor" : 0,
			"revision" : 0,
			"architecture" : "x64",
			"modernui" : 1
		}
,
		"rect" : [ 34.0, 78.0, 1212.0, 688.0 ],
		"bglocked" : 0,
		"openinpresentation" : 1,
		"default_fontsize" : 12.0,
		"default_fontface" : 0,
		"default_fontname" : "Arial",
		"gridonopen" : 1,
		"gridsize" : [ 15.0, 15.0 ],
		"gridsnaponopen" : 1,
		"objectsnaponopen" : 1,
		"statusbarvisible" : 2,
		"toolbarvisible" : 1,
		"lefttoolbarpinned" : 0,
		"toptoolbarpinned" : 0,
		"righttoolbarpinned" : 0,
		"bottomtoolbarpinned" : 0,
		"toolbars_unpinned_last_save" : 0,
		"tallnewobj" : 0,
		"boxanimatetime" : 200,
		"enablehscroll" : 1,
		"enablevscroll" : 1,
		"devicewidth" : 0.0,
		"description" : "",
		"digest" : "",
		"tags" : "",
		"style" : "",
		"subpatcher_template" : "",
		"boxes" : [ 			{
				"box" : 				{
					"id" : "obj-110",
					"maxclass" : "newobj",
					"numinlets" : 1,
					"numoutlets" : 0,
					"patching_rect" : [ 1078.0, 195.0, 34.0, 22.0 ],
					"style" : "",
					"text" : "print"
				}

			}
, 			{
				"box" : 				{
					"id" : "obj-147",
					"maxclass" : "newobj",
					"numinlets" : 1,
					"numoutlets" : 1,
					"outlettype" : [ "" ],
					"patching_rect" : [ 557.5, 23.0, 79.0, 22.0 ],
					"style" : "",
					"text" : "loadmess 60"
				}

			}
, 			{
				"box" : 				{
					"id" : "obj-146",
					"maxclass" : "live.numbox",
					"numinlets" : 1,
					"numoutlets" : 2,
					"outlettype" : [ "", "float" ],
					"parameter_enable" : 1,
					"patching_rect" : [ 557.5, 63.5, 60.0, 15.0 ],
					"presentation" : 1,
					"presentation_rect" : [ 187.5, 48.5, 36.0, 15.0 ],
					"saved_attribute_attributes" : 					{
						"valueof" : 						{
							"parameter_longname" : "live.numbox[4]",
							"parameter_shortname" : "live.numbox[1]",
							"parameter_type" : 1,
							"parameter_mmin" : 24.0,
							"parameter_mmax" : 137.0,
							"parameter_initial_enable" : 1,
							"parameter_initial" : [ 60 ],
							"parameter_unitstyle" : 8
						}

					}
,
					"varname" : "live.numbox[1]"
				}

			}
, 			{
				"box" : 				{
					"id" : "obj-84",
					"maxclass" : "comment",
					"numinlets" : 1,
					"numoutlets" : 0,
					"patching_rect" : [ 449.0, 63.5, 35.0, 20.0 ],
					"presentation" : 1,
					"presentation_rect" : [ 144.0, 69.0, 47.25, 20.0 ],
					"style" : "",
					"text" : "Min",
					"textcolor" : [ 0.317647, 0.654902, 0.976471, 1.0 ],
					"textjustification" : 1
				}

			}
, 			{
				"box" : 				{
					"id" : "obj-90",
					"maxclass" : "comment",
					"numinlets" : 1,
					"numoutlets" : 0,
					"patching_rect" : [ 626.5, 63.5, 37.0, 20.0 ],
					"presentation" : 1,
					"presentation_rect" : [ 144.0, 46.0, 49.25, 20.0 ],
					"style" : "",
					"text" : "Max ",
					"textcolor" : [ 0.317647, 0.654902, 0.976471, 1.0 ],
					"textjustification" : 1
				}

			}
, 			{
				"box" : 				{
					"id" : "obj-145",
					"maxclass" : "newobj",
					"numinlets" : 2,
					"numoutlets" : 2,
					"outlettype" : [ "bang", "" ],
					"patching_rect" : [ 142.0, 455.0, 36.0, 22.0 ],
					"style" : "",
					"text" : "sel 0"
				}

			}
, 			{
				"box" : 				{
					"fontface" : 1,
					"fontname" : "Papyrus",
					"id" : "obj-125",
					"maxclass" : "comment",
					"numinlets" : 1,
					"numoutlets" : 0,
					"patching_rect" : [ 528.0, 273.0, 60.0, 25.0 ],
					"presentation" : 1,
					"presentation_rect" : [ 164.75, 97.75, 60.0, 25.0 ],
					"style" : "",
					"text" : "Gene LP",
					"textcolor" : [ 0.317647, 0.654902, 0.976471, 1.0 ]
				}

			}
, 			{
				"box" : 				{
					"activebgoncolor" : [ 0.317647, 0.654902, 0.976471, 1.0 ],
					"id" : "obj-126",
					"maxclass" : "live.toggle",
					"numinlets" : 1,
					"numoutlets" : 1,
					"outlettype" : [ "" ],
					"parameter_enable" : 1,
					"patching_rect" : [ 142.5, 427.0, 15.0, 15.0 ],
					"presentation" : 1,
					"presentation_rect" : [ 26.0, 130.5, 15.0, 15.0 ],
					"saved_attribute_attributes" : 					{
						"valueof" : 						{
							"parameter_longname" : "live.toggle[2]",
							"parameter_shortname" : "live.toggle",
							"parameter_type" : 2,
							"parameter_mmax" : 1.0,
							"parameter_enum" : [ "off", "on" ]
						}

					}
,
					"varname" : "live.toggle[2]"
				}

			}
, 			{
				"box" : 				{
					"id" : "obj-127",
					"linecolor" : [ 0.317647, 0.654902, 0.976471, 1.0 ],
					"maxclass" : "live.line",
					"numinlets" : 1,
					"numoutlets" : 0,
					"patching_rect" : [ 72.731445, 146.5, 5.0, 100.0 ],
					"presentation" : 1,
					"presentation_rect" : [ 26.0, 126.0, 110.5, 13.0 ]
				}

			}
, 			{
				"box" : 				{
					"id" : "obj-128",
					"linecolor" : [ 0.317647, 0.654902, 0.976471, 1.0 ],
					"maxclass" : "live.line",
					"numinlets" : 1,
					"numoutlets" : 0,
					"patching_rect" : [ 43.5, 124.0, 5.0, 100.0 ],
					"presentation" : 1,
					"presentation_rect" : [ 26.0, 117.25, 101.5, 13.0 ]
				}

			}
, 			{
				"box" : 				{
					"id" : "obj-129",
					"linecolor" : [ 0.317647, 0.654902, 0.976471, 1.0 ],
					"maxclass" : "live.line",
					"numinlets" : 1,
					"numoutlets" : 0,
					"patching_rect" : [ 59.0, 139.0, 5.0, 100.0 ],
					"presentation" : 1,
					"presentation_rect" : [ 144.0, 93.75, 101.5, 13.0 ]
				}

			}
, 			{
				"box" : 				{
					"id" : "obj-130",
					"linecolor" : [ 0.317647, 0.654902, 0.976471, 1.0 ],
					"maxclass" : "live.line",
					"numinlets" : 1,
					"numoutlets" : 0,
					"patching_rect" : [ 50.0, 139.0, 5.0, 100.0 ],
					"presentation" : 1,
					"presentation_rect" : [ 229.5, 46.0, 5.0, 100.0 ]
				}

			}
, 			{
				"box" : 				{
					"id" : "obj-131",
					"maxclass" : "live.numbox",
					"numinlets" : 1,
					"numoutlets" : 2,
					"outlettype" : [ "", "float" ],
					"parameter_enable" : 1,
					"patching_rect" : [ 495.5, 63.5, 60.0, 15.0 ],
					"presentation" : 1,
					"presentation_rect" : [ 187.5, 71.5, 36.0, 15.0 ],
					"saved_attribute_attributes" : 					{
						"valueof" : 						{
							"parameter_longname" : "live.numbox[2]",
							"parameter_shortname" : "live.numbox[1]",
							"parameter_type" : 1,
							"parameter_mmin" : 24.0,
							"parameter_mmax" : 137.0,
							"parameter_initial_enable" : 1,
							"parameter_initial" : [ 60 ],
							"parameter_unitstyle" : 8
						}

					}
,
					"varname" : "live.numbox[2]"
				}

			}
, 			{
				"box" : 				{
					"activebgoncolor" : [ 0.317647, 0.654902, 0.976471, 1.0 ],
					"id" : "obj-133",
					"maxclass" : "live.tab",
					"num_lines_patching" : 6,
					"num_lines_presentation" : 3,
					"numinlets" : 1,
					"numoutlets" : 3,
					"outlettype" : [ "", "", "float" ],
					"parameter_enable" : 1,
					"patching_rect" : [ 394.0, 260.0, 122.0, 99.0 ],
					"presentation" : 1,
					"presentation_rect" : [ 26.0, 46.0, 116.0, 66.0 ],
					"saved_attribute_attributes" : 					{
						"valueof" : 						{
							"parameter_longname" : "live.tab",
							"parameter_shortname" : "live.tab",
							"parameter_type" : 2,
							"parameter_enum" : [ "Sin", "Triangle", "Saw", "Square", "White", "Pink" ],
							"parameter_unitstyle" : 0
						}

					}
,
					"varname" : "live.tab"
				}

			}
, 			{
				"box" : 				{
					"id" : "obj-134",
					"maxclass" : "newobj",
					"numinlets" : 1,
					"numoutlets" : 1,
					"outlettype" : [ "" ],
					"patching_rect" : [ 482.0, 23.0, 79.0, 22.0 ],
					"style" : "",
					"text" : "loadmess 60"
				}

			}
, 			{
				"box" : 				{
					"id" : "obj-135",
					"maxclass" : "newobj",
					"numinlets" : 1,
					"numoutlets" : 1,
					"outlettype" : [ "" ],
					"patching_rect" : [ 402.0, 217.0, 72.0, 22.0 ],
					"style" : "",
					"text" : "loadmess 0"
				}

			}
, 			{
				"box" : 				{
					"id" : "obj-142",
					"maxclass" : "newobj",
					"numinlets" : 1,
					"numoutlets" : 1,
					"outlettype" : [ "signal" ],
					"patching_rect" : [ 538.0, 300.0, 41.0, 22.0 ],
					"style" : "",
					"text" : "mtof~"
				}

			}
, 			{
				"box" : 				{
					"id" : "obj-143",
					"maxclass" : "newobj",
					"numinlets" : 3,
					"numoutlets" : 1,
					"outlettype" : [ "signal" ],
					"patcher" : 					{
						"fileversion" : 1,
						"appversion" : 						{
							"major" : 7,
							"minor" : 0,
							"revision" : 0,
							"architecture" : "x64",
							"modernui" : 1
						}
,
						"rect" : [ 606.0, 112.0, 640.0, 480.0 ],
						"bglocked" : 0,
						"openinpresentation" : 0,
						"default_fontsize" : 12.0,
						"default_fontface" : 0,
						"default_fontname" : "Arial",
						"gridonopen" : 1,
						"gridsize" : [ 15.0, 15.0 ],
						"gridsnaponopen" : 1,
						"objectsnaponopen" : 1,
						"statusbarvisible" : 2,
						"toolbarvisible" : 1,
						"lefttoolbarpinned" : 0,
						"toptoolbarpinned" : 0,
						"righttoolbarpinned" : 0,
						"bottomtoolbarpinned" : 0,
						"toolbars_unpinned_last_save" : 0,
						"tallnewobj" : 0,
						"boxanimatetime" : 200,
						"enablehscroll" : 1,
						"enablevscroll" : 1,
						"devicewidth" : 0.0,
						"description" : "",
						"digest" : "",
						"tags" : "",
						"style" : "",
						"subpatcher_template" : "",
						"boxes" : [ 							{
								"box" : 								{
									"id" : "obj-14",
									"maxclass" : "newobj",
									"numinlets" : 1,
									"numoutlets" : 1,
									"outlettype" : [ "bang" ],
									"patching_rect" : [ 456.0, 20.0, 60.0, 22.0 ],
									"style" : "",
									"text" : "loadbang"
								}

							}
, 							{
								"box" : 								{
									"id" : "obj-13",
									"maxclass" : "newobj",
									"numinlets" : 1,
									"numoutlets" : 2,
									"outlettype" : [ "signal", "signal" ],
									"patching_rect" : [ 415.428558, 100.0, 37.0, 22.0 ],
									"style" : "",
									"text" : "adc~"
								}

							}
, 							{
								"box" : 								{
									"id" : "obj-12",
									"maxclass" : "toggle",
									"numinlets" : 1,
									"numoutlets" : 1,
									"outlettype" : [ "int" ],
									"parameter_enable" : 0,
									"patching_rect" : [ 456.0, 55.0, 24.0, 24.0 ],
									"style" : ""
								}

							}
, 							{
								"box" : 								{
									"comment" : "",
									"id" : "obj-10",
									"maxclass" : "inlet",
									"numinlets" : 0,
									"numoutlets" : 1,
									"outlettype" : [ "" ],
									"patching_rect" : [ 369.75, 40.0, 30.0, 30.0 ],
									"style" : ""
								}

							}
, 							{
								"box" : 								{
									"id" : "obj-5",
									"maxclass" : "newobj",
									"numinlets" : 1,
									"numoutlets" : 1,
									"outlettype" : [ "signal" ],
									"patching_rect" : [ 369.75, 100.0, 41.0, 22.0 ],
									"style" : "",
									"text" : "click~"
								}

							}
, 							{
								"box" : 								{
									"comment" : "freq",
									"hint" : "",
									"id" : "obj-4",
									"maxclass" : "inlet",
									"numinlets" : 0,
									"numoutlets" : 1,
									"outlettype" : [ "signal" ],
									"patching_rect" : [ 98.400024, 40.0, 30.0, 30.0 ],
									"style" : ""
								}

							}
, 							{
								"box" : 								{
									"id" : "obj-18",
									"maxclass" : "newobj",
									"numinlets" : 2,
									"numoutlets" : 1,
									"outlettype" : [ "int" ],
									"patching_rect" : [ 50.0, 102.0, 29.5, 22.0 ],
									"style" : "",
									"text" : "+ 1"
								}

							}
, 							{
								"box" : 								{
									"id" : "obj-9",
									"maxclass" : "newobj",
									"numinlets" : 1,
									"numoutlets" : 1,
									"outlettype" : [ "signal" ],
									"patching_rect" : [ 323.75, 100.0, 40.0, 22.0 ],
									"style" : "",
									"text" : "pink~"
								}

							}
, 							{
								"box" : 								{
									"id" : "obj-8",
									"maxclass" : "newobj",
									"numinlets" : 1,
									"numoutlets" : 1,
									"outlettype" : [ "signal" ],
									"patching_rect" : [ 273.125, 100.0, 46.0, 22.0 ],
									"style" : "",
									"text" : "noise~"
								}

							}
, 							{
								"box" : 								{
									"id" : "obj-7",
									"maxclass" : "newobj",
									"numinlets" : 2,
									"numoutlets" : 1,
									"outlettype" : [ "signal" ],
									"patching_rect" : [ 185.0, 100.0, 39.0, 22.0 ],
									"style" : "",
									"text" : "saw~"
								}

							}
, 							{
								"box" : 								{
									"id" : "obj-6",
									"maxclass" : "newobj",
									"numinlets" : 3,
									"numoutlets" : 1,
									"outlettype" : [ "signal" ],
									"patching_rect" : [ 228.5, 100.0, 40.0, 22.0 ],
									"style" : "",
									"text" : "rect~"
								}

							}
, 							{
								"box" : 								{
									"id" : "obj-3",
									"maxclass" : "newobj",
									"numinlets" : 3,
									"numoutlets" : 1,
									"outlettype" : [ "signal" ],
									"patching_rect" : [ 139.25, 100.0, 40.0, 22.0 ],
									"style" : "",
									"text" : "tri~"
								}

							}
, 							{
								"box" : 								{
									"id" : "obj-2",
									"maxclass" : "newobj",
									"numinlets" : 2,
									"numoutlets" : 1,
									"outlettype" : [ "signal" ],
									"patching_rect" : [ 90.900024, 100.0, 45.0, 22.0 ],
									"style" : "",
									"text" : "cycle~"
								}

							}
, 							{
								"box" : 								{
									"id" : "obj-1",
									"maxclass" : "newobj",
									"numinlets" : 9,
									"numoutlets" : 1,
									"outlettype" : [ "signal" ],
									"patching_rect" : [ 50.0, 137.0, 384.428558, 22.0 ],
									"style" : "",
									"text" : "selector~ 8"
								}

							}
, 							{
								"box" : 								{
									"comment" : "",
									"id" : "obj-20",
									"maxclass" : "inlet",
									"numinlets" : 0,
									"numoutlets" : 1,
									"outlettype" : [ "" ],
									"patching_rect" : [ 50.0, 40.0, 30.0, 30.0 ],
									"style" : ""
								}

							}
, 							{
								"box" : 								{
									"comment" : "",
									"id" : "obj-22",
									"maxclass" : "outlet",
									"numinlets" : 1,
									"numoutlets" : 0,
									"patching_rect" : [ 50.0, 219.0, 30.0, 30.0 ],
									"style" : ""
								}

							}
 ],
						"lines" : [ 							{
								"patchline" : 								{
									"destination" : [ "obj-22", 0 ],
									"disabled" : 0,
									"hidden" : 0,
									"source" : [ "obj-1", 0 ]
								}

							}
, 							{
								"patchline" : 								{
									"destination" : [ "obj-5", 0 ],
									"disabled" : 0,
									"hidden" : 0,
									"source" : [ "obj-10", 0 ]
								}

							}
, 							{
								"patchline" : 								{
									"destination" : [ "obj-13", 0 ],
									"disabled" : 0,
									"hidden" : 0,
									"source" : [ "obj-12", 0 ]
								}

							}
, 							{
								"patchline" : 								{
									"destination" : [ "obj-1", 8 ],
									"disabled" : 0,
									"hidden" : 0,
									"source" : [ "obj-13", 0 ]
								}

							}
, 							{
								"patchline" : 								{
									"destination" : [ "obj-12", 0 ],
									"disabled" : 0,
									"hidden" : 0,
									"source" : [ "obj-14", 0 ]
								}

							}
, 							{
								"patchline" : 								{
									"destination" : [ "obj-1", 0 ],
									"disabled" : 0,
									"hidden" : 0,
									"source" : [ "obj-18", 0 ]
								}

							}
, 							{
								"patchline" : 								{
									"destination" : [ "obj-1", 1 ],
									"disabled" : 0,
									"hidden" : 0,
									"source" : [ "obj-2", 0 ]
								}

							}
, 							{
								"patchline" : 								{
									"destination" : [ "obj-18", 0 ],
									"disabled" : 0,
									"hidden" : 0,
									"source" : [ "obj-20", 0 ]
								}

							}
, 							{
								"patchline" : 								{
									"destination" : [ "obj-1", 2 ],
									"disabled" : 0,
									"hidden" : 0,
									"source" : [ "obj-3", 0 ]
								}

							}
, 							{
								"patchline" : 								{
									"destination" : [ "obj-2", 0 ],
									"disabled" : 0,
									"hidden" : 0,
									"midpoints" : [ 107.900024, 81.5, 100.400024, 81.5 ],
									"source" : [ "obj-4", 0 ]
								}

							}
, 							{
								"patchline" : 								{
									"destination" : [ "obj-3", 0 ],
									"disabled" : 0,
									"hidden" : 0,
									"midpoints" : [ 107.900024, 81.5, 148.75, 81.5 ],
									"source" : [ "obj-4", 0 ]
								}

							}
, 							{
								"patchline" : 								{
									"destination" : [ "obj-6", 0 ],
									"disabled" : 0,
									"hidden" : 0,
									"midpoints" : [ 107.900024, 81.5, 238.0, 81.5 ],
									"source" : [ "obj-4", 0 ]
								}

							}
, 							{
								"patchline" : 								{
									"destination" : [ "obj-7", 0 ],
									"disabled" : 0,
									"hidden" : 0,
									"midpoints" : [ 107.900024, 81.5, 194.5, 81.5 ],
									"source" : [ "obj-4", 0 ]
								}

							}
, 							{
								"patchline" : 								{
									"destination" : [ "obj-1", 7 ],
									"disabled" : 0,
									"hidden" : 0,
									"source" : [ "obj-5", 0 ]
								}

							}
, 							{
								"patchline" : 								{
									"destination" : [ "obj-1", 4 ],
									"disabled" : 0,
									"hidden" : 0,
									"source" : [ "obj-6", 0 ]
								}

							}
, 							{
								"patchline" : 								{
									"destination" : [ "obj-1", 3 ],
									"disabled" : 0,
									"hidden" : 0,
									"source" : [ "obj-7", 0 ]
								}

							}
, 							{
								"patchline" : 								{
									"destination" : [ "obj-1", 5 ],
									"disabled" : 0,
									"hidden" : 0,
									"source" : [ "obj-8", 0 ]
								}

							}
, 							{
								"patchline" : 								{
									"destination" : [ "obj-1", 6 ],
									"disabled" : 0,
									"hidden" : 0,
									"source" : [ "obj-9", 0 ]
								}

							}
 ]
					}
,
					"patching_rect" : [ 489.0, 361.0, 117.0, 22.0 ],
					"saved_object_attributes" : 					{
						"description" : "",
						"digest" : "",
						"globalpatchername" : "",
						"style" : "",
						"tags" : ""
					}
,
					"style" : "",
					"text" : "p oscillator"
				}

			}
, 			{
				"box" : 				{
					"angle" : 270.0,
					"border" : 2,
					"bordercolor" : [ 0.0, 0.078431, 0.321569, 1.0 ],
					"grad1" : [ 0.0, 0.0, 0.0, 1.0 ],
					"grad2" : [ 0.0, 0.0, 0.0, 1.0 ],
					"id" : "obj-144",
					"maxclass" : "panel",
					"mode" : 1,
					"numinlets" : 1,
					"numoutlets" : 0,
					"patching_rect" : [ 402.0, 260.0, 225.0, 132.0 ],
					"presentation" : 1,
					"presentation_rect" : [ 19.25, 37.5, 243.0, 116.25 ],
					"proportion" : 0.39,
					"rounded" : 10,
					"style" : ""
				}

			}
, 			{
				"box" : 				{
					"id" : "obj-1",
					"linecolor" : [ 0.317647, 0.654902, 0.976471, 1.0 ],
					"maxclass" : "live.line",
					"numinlets" : 1,
					"numoutlets" : 0,
					"patching_rect" : [ 1275.0, 469.0, 5.0, 100.0 ],
					"presentation" : 1,
					"presentation_rect" : [ 105.5, 302.0, 499.0, 83.0 ]
				}

			}
, 			{
				"box" : 				{
					"id" : "obj-2",
					"linecolor" : [ 0.317647, 0.654902, 0.976471, 1.0 ],
					"maxclass" : "live.line",
					"numinlets" : 1,
					"numoutlets" : 0,
					"patching_rect" : [ 1285.0, 462.5, 5.0, 100.0 ],
					"presentation" : 1,
					"presentation_rect" : [ 42.0, 214.5, 36.0, 322.5 ]
				}

			}
, 			{
				"box" : 				{
					"id" : "obj-80",
					"linecolor" : [ 0.317647, 0.654902, 0.976471, 1.0 ],
					"maxclass" : "live.line",
					"numinlets" : 1,
					"numoutlets" : 0,
					"patching_rect" : [ 1275.0, 469.0, 5.0, 100.0 ],
					"presentation" : 1,
					"presentation_rect" : [ 36.0, 214.5, 36.0, 322.5 ]
				}

			}
, 			{
				"box" : 				{
					"id" : "obj-78",
					"linecolor" : [ 0.317647, 0.654902, 0.976471, 1.0 ],
					"maxclass" : "live.line",
					"numinlets" : 1,
					"numoutlets" : 0,
					"patching_rect" : [ 1260.0, 454.0, 5.0, 100.0 ],
					"presentation" : 1,
					"presentation_rect" : [ 26.0, 221.0, 688.0, 83.0 ]
				}

			}
, 			{
				"box" : 				{
					"fontname" : "Verdana",
					"fontsize" : 48.0,
					"id" : "obj-77",
					"maxclass" : "comment",
					"numinlets" : 1,
					"numoutlets" : 0,
					"patching_rect" : [ 1545.0, 302.0, 287.0, 65.0 ],
					"presentation" : 1,
					"presentation_rect" : [ 248.0, 230.0, 287.0, 65.0 ],
					"style" : "",
					"text" : "GECO MAX"
				}

			}
, 			{
				"box" : 				{
					"id" : "obj-75",
					"linecolor" : [ 0.317647, 0.654902, 0.976471, 1.0 ],
					"maxclass" : "live.line",
					"numinlets" : 1,
					"numoutlets" : 0,
					"patching_rect" : [ 1290.0, 484.0, 5.0, 100.0 ],
					"presentation" : 1,
					"presentation_rect" : [ 105.5, 348.0, 98.0, 49.0 ]
				}

			}
, 			{
				"box" : 				{
					"activebgoncolor" : [ 0.011765, 0.396078, 0.752941, 1.0 ],
					"id" : "obj-74",
					"maxclass" : "live.toggle",
					"numinlets" : 1,
					"numoutlets" : 1,
					"outlettype" : [ "" ],
					"parameter_enable" : 1,
					"patching_rect" : [ 1843.268677, 449.0, 15.0, 15.0 ],
					"presentation" : 1,
					"presentation_rect" : [ 569.268555, 404.0, 15.0, 15.0 ],
					"saved_attribute_attributes" : 					{
						"valueof" : 						{
							"parameter_longname" : "live.toggle[1]",
							"parameter_shortname" : "live.toggle",
							"parameter_type" : 2,
							"parameter_mmax" : 1.0,
							"parameter_enum" : [ "off", "on" ]
						}

					}
,
					"varname" : "live.toggle[1]"
				}

			}
, 			{
				"box" : 				{
					"activebgoncolor" : [ 0.317647, 0.654902, 0.976471, 1.0 ],
					"id" : "obj-73",
					"maxclass" : "live.toggle",
					"numinlets" : 1,
					"numoutlets" : 1,
					"outlettype" : [ "" ],
					"parameter_enable" : 1,
					"patching_rect" : [ 1890.04541, 449.0, 15.0, 15.0 ],
					"presentation" : 1,
					"presentation_rect" : [ 569.268555, 464.0, 15.0, 15.0 ],
					"saved_attribute_attributes" : 					{
						"valueof" : 						{
							"parameter_longname" : "live.toggle",
							"parameter_shortname" : "live.toggle",
							"parameter_type" : 2,
							"parameter_mmax" : 1.0,
							"parameter_enum" : [ "off", "on" ]
						}

					}
,
					"varname" : "live.toggle"
				}

			}
, 			{
				"box" : 				{
					"id" : "obj-69",
					"linecolor" : [ 0.317647, 0.654902, 0.976471, 1.0 ],
					"maxclass" : "live.line",
					"numinlets" : 1,
					"numoutlets" : 0,
					"patching_rect" : [ 1275.0, 469.0, 5.0, 100.0 ],
					"presentation" : 1,
					"presentation_rect" : [ 105.5, 302.0, 40.0, 67.0 ]
				}

			}
, 			{
				"box" : 				{
					"id" : "obj-67",
					"linecolor" : [ 0.317647, 0.654902, 0.976471, 1.0 ],
					"maxclass" : "live.line",
					"numinlets" : 1,
					"numoutlets" : 0,
					"patching_rect" : [ 1260.0, 454.0, 5.0, 100.0 ],
					"presentation" : 1,
					"presentation_rect" : [ 80.0, 386.0, 349.0, 97.0 ]
				}

			}
, 			{
				"box" : 				{
					"id" : "obj-65",
					"linecolor" : [ 0.317647, 0.654902, 0.976471, 1.0 ],
					"maxclass" : "live.line",
					"numinlets" : 1,
					"numoutlets" : 0,
					"patching_rect" : [ 1245.0, 439.0, 5.0, 100.0 ],
					"presentation" : 1,
					"presentation_rect" : [ 80.0, 539.0, 588.0, 83.0 ]
				}

			}
, 			{
				"box" : 				{
					"id" : "obj-60",
					"linecolor" : [ 0.317647, 0.654902, 0.976471, 1.0 ],
					"maxclass" : "live.line",
					"numinlets" : 1,
					"numoutlets" : 0,
					"patching_rect" : [ 1230.0, 424.0, 5.0, 100.0 ],
					"presentation" : 1,
					"presentation_rect" : [ 327.0, 368.0, 38.0, 220.0 ]
				}

			}
, 			{
				"box" : 				{
					"id" : "obj-76",
					"maxclass" : "newobj",
					"numinlets" : 1,
					"numoutlets" : 1,
					"outlettype" : [ "" ],
					"patching_rect" : [ 1260.5, 209.0, 72.0, 22.0 ],
					"style" : "",
					"text" : "loadmess 1"
				}

			}
, 			{
				"box" : 				{
					"bgfillcolor_angle" : 270.0,
					"bgfillcolor_autogradient" : 0,
					"bgfillcolor_color" : [ 0.290196, 0.309804, 0.301961, 1.0 ],
					"bgfillcolor_color1" : [ 0.0, 0.0, 0.0, 1.0 ],
					"bgfillcolor_color2" : [ 0.0, 0.0, 0.0, 1.0 ],
					"bgfillcolor_proportion" : 0.39,
					"bgfillcolor_type" : "gradient",
					"color" : [ 0.0, 0.0, 0.0, 1.0 ],
					"elementcolor" : [ 0.0, 0.0, 0.0, 1.0 ],
					"fontface" : 0,
					"fontname" : "Arial",
					"fontsize" : 13.0,
					"id" : "obj-71",
					"items" : [ "to Max 1", ",", "to Max 2", ",", "GECO", ",", "GECO" ],
					"labelclick" : 1,
					"maxclass" : "umenu",
					"numinlets" : 1,
					"numoutlets" : 3,
					"outlettype" : [ "int", "", "" ],
					"parameter_enable" : 0,
					"patching_rect" : [ 1226.0, 273.0, 123.5, 23.0 ],
					"presentation" : 1,
					"presentation_rect" : [ 105.5, 324.0, 94.0, 23.0 ],
					"style" : "",
					"textcolor" : [ 0.011765, 0.396078, 0.752941, 1.0 ]
				}

			}
, 			{
				"box" : 				{
					"fontname" : "Arial",
					"fontsize" : 13.0,
					"id" : "obj-72",
					"maxclass" : "newobj",
					"numinlets" : 2,
					"numoutlets" : 1,
					"outlettype" : [ "" ],
					"patching_rect" : [ 1226.0, 243.0, 55.0, 23.0 ],
					"style" : "",
					"text" : "midiinfo"
				}

			}
, 			{
				"box" : 				{
					"id" : "obj-3",
					"maxclass" : "comment",
					"numinlets" : 1,
					"numoutlets" : 0,
					"patching_rect" : [ 1751.0, 737.0, 71.0, 20.0 ],
					"style" : "",
					"text" : "RECEIVES",
					"textcolor" : [ 0.011765, 0.396078, 0.752941, 1.0 ]
				}

			}
, 			{
				"box" : 				{
					"fontname" : "Verdana",
					"fontsize" : 48.0,
					"id" : "obj-6",
					"maxclass" : "comment",
					"numinlets" : 1,
					"numoutlets" : 0,
					"patching_rect" : [ 1530.0, 287.0, 287.0, 65.0 ],
					"presentation" : 1,
					"presentation_rect" : [ 242.0, 230.0, 287.0, 65.0 ],
					"style" : "",
					"text" : "GECO MAX",
					"textcolor" : [ 0.317647, 0.654902, 0.976471, 1.0 ]
				}

			}
, 			{
				"box" : 				{
					"fontface" : 1,
					"id" : "obj-12",
					"maxclass" : "comment",
					"numinlets" : 1,
					"numoutlets" : 0,
					"patching_rect" : [ 1909.322388, 531.0, 107.0, 20.0 ],
					"presentation" : 1,
					"presentation_rect" : [ 589.0, 461.5, 107.0, 20.0 ],
					"style" : "",
					"text" : "RIGHT TRIGGER",
					"textcolor" : [ 0.317647, 0.654902, 0.976471, 1.0 ]
				}

			}
, 			{
				"box" : 				{
					"fontface" : 1,
					"id" : "obj-15",
					"maxclass" : "comment",
					"numinlets" : 1,
					"numoutlets" : 0,
					"patching_rect" : [ 1842.768677, 509.0, 99.0, 20.0 ],
					"presentation" : 1,
					"presentation_rect" : [ 589.0, 401.5, 99.0, 20.0 ],
					"style" : "",
					"text" : "LEFT TRIGGER",
					"textcolor" : [ 0.317647, 0.654902, 0.976471, 1.0 ]
				}

			}
, 			{
				"box" : 				{
					"fontface" : 1,
					"fontname" : "Arial",
					"id" : "obj-27",
					"maxclass" : "comment",
					"numinlets" : 1,
					"numoutlets" : 0,
					"patching_rect" : [ 1338.0, 215.0, 96.0, 20.0 ],
					"presentation" : 1,
					"presentation_rect" : [ 105.5, 302.0, 96.0, 20.0 ],
					"style" : "",
					"text" : "MIDI IN: GECO",
					"textcolor" : [ 0.317647, 0.654902, 0.976471, 1.0 ]
				}

			}
, 			{
				"box" : 				{
					"color" : [ 1.0, 1.0, 1.0, 1.0 ],
					"id" : "obj-17",
					"maxclass" : "newobj",
					"numinlets" : 0,
					"numoutlets" : 1,
					"outlettype" : [ "" ],
					"patching_rect" : [ 1677.322388, 756.0, 49.0, 22.0 ],
					"style" : "",
					"text" : "r rhand"
				}

			}
, 			{
				"box" : 				{
					"color" : [ 1.0, 1.0, 1.0, 1.0 ],
					"id" : "obj-63",
					"maxclass" : "newobj",
					"numinlets" : 0,
					"numoutlets" : 1,
					"outlettype" : [ "" ],
					"patching_rect" : [ 1678.322388, 715.0, 47.0, 22.0 ],
					"style" : "",
					"text" : "r lhand"
				}

			}
, 			{
				"box" : 				{
					"color" : [ 0.702269, 0.811747, 0.303388, 1.0 ],
					"id" : "obj-18",
					"maxclass" : "newobj",
					"numinlets" : 0,
					"numoutlets" : 1,
					"outlettype" : [ "" ],
					"patching_rect" : [ 1605.268677, 756.0, 67.0, 22.0 ],
					"style" : "",
					"text" : "r rightpitch"
				}

			}
, 			{
				"box" : 				{
					"color" : [ 0.941176, 0.690196, 0.196078, 1.0 ],
					"id" : "obj-19",
					"maxclass" : "newobj",
					"numinlets" : 0,
					"numoutlets" : 1,
					"outlettype" : [ "" ],
					"patching_rect" : [ 1544.5, 756.0, 57.0, 22.0 ],
					"style" : "",
					"text" : "r rightroll"
				}

			}
, 			{
				"box" : 				{
					"color" : [ 0.702269, 0.811747, 0.303388, 1.0 ],
					"id" : "obj-56",
					"maxclass" : "newobj",
					"numinlets" : 1,
					"numoutlets" : 0,
					"patching_rect" : [ 1850.768677, 601.0, 69.0, 22.0 ],
					"style" : "",
					"text" : "s rightpitch"
				}

			}
, 			{
				"box" : 				{
					"color" : [ 0.941176, 0.690196, 0.196078, 1.0 ],
					"id" : "obj-57",
					"maxclass" : "newobj",
					"numinlets" : 1,
					"numoutlets" : 0,
					"patching_rect" : [ 1782.0, 601.0, 59.0, 22.0 ],
					"style" : "",
					"text" : "s rightroll"
				}

			}
, 			{
				"box" : 				{
					"color" : [ 0.702269, 0.811747, 0.303388, 1.0 ],
					"id" : "obj-21",
					"maxclass" : "newobj",
					"numinlets" : 0,
					"numoutlets" : 1,
					"outlettype" : [ "" ],
					"patching_rect" : [ 1606.268677, 715.0, 59.0, 22.0 ],
					"style" : "",
					"text" : "r leftpitch"
				}

			}
, 			{
				"box" : 				{
					"color" : [ 0.941176, 0.690196, 0.196078, 1.0 ],
					"id" : "obj-22",
					"maxclass" : "newobj",
					"numinlets" : 0,
					"numoutlets" : 1,
					"outlettype" : [ "" ],
					"patching_rect" : [ 1545.5, 715.0, 50.0, 22.0 ],
					"style" : "",
					"text" : "r leftroll"
				}

			}
, 			{
				"box" : 				{
					"color" : [ 0.702269, 0.811747, 0.303388, 1.0 ],
					"id" : "obj-53",
					"maxclass" : "newobj",
					"numinlets" : 1,
					"numoutlets" : 0,
					"patching_rect" : [ 1569.0, 601.0, 61.0, 22.0 ],
					"style" : "",
					"text" : "s leftpitch"
				}

			}
, 			{
				"box" : 				{
					"color" : [ 0.941176, 0.690196, 0.196078, 1.0 ],
					"id" : "obj-23",
					"maxclass" : "newobj",
					"numinlets" : 1,
					"numoutlets" : 0,
					"patching_rect" : [ 1513.0, 601.0, 52.0, 22.0 ],
					"style" : "",
					"text" : "s leftroll"
				}

			}
, 			{
				"box" : 				{
					"color" : [ 0.317647, 0.654902, 0.976471, 1.0 ],
					"id" : "obj-24",
					"maxclass" : "newobj",
					"numinlets" : 0,
					"numoutlets" : 1,
					"outlettype" : [ "" ],
					"patching_rect" : [ 1491.5, 756.0, 47.0, 22.0 ],
					"style" : "",
					"text" : "r rightz"
				}

			}
, 			{
				"box" : 				{
					"color" : [ 0.999996, 0.999939, 0.041033, 1.0 ],
					"id" : "obj-28",
					"maxclass" : "newobj",
					"numinlets" : 0,
					"numoutlets" : 1,
					"outlettype" : [ "" ],
					"patching_rect" : [ 1430.0, 756.0, 47.0, 22.0 ],
					"style" : "",
					"text" : "r righty"
				}

			}
, 			{
				"box" : 				{
					"color" : [ 0.784314, 0.145098, 0.023529, 1.0 ],
					"id" : "obj-29",
					"maxclass" : "newobj",
					"numinlets" : 0,
					"numoutlets" : 1,
					"outlettype" : [ "" ],
					"patching_rect" : [ 1374.0, 756.0, 47.0, 22.0 ],
					"style" : "",
					"text" : "r rightx"
				}

			}
, 			{
				"box" : 				{
					"color" : [ 0.317647, 0.654902, 0.976471, 1.0 ],
					"id" : "obj-30",
					"maxclass" : "newobj",
					"numinlets" : 1,
					"numoutlets" : 0,
					"patching_rect" : [ 1726.0, 601.0, 49.0, 22.0 ],
					"style" : "",
					"text" : "s rightz"
				}

			}
, 			{
				"box" : 				{
					"color" : [ 0.999996, 0.999939, 0.041033, 1.0 ],
					"id" : "obj-31",
					"maxclass" : "newobj",
					"numinlets" : 1,
					"numoutlets" : 0,
					"patching_rect" : [ 1683.0, 601.0, 49.0, 22.0 ],
					"style" : "",
					"text" : "s righty"
				}

			}
, 			{
				"box" : 				{
					"color" : [ 0.784314, 0.145098, 0.023529, 1.0 ],
					"id" : "obj-32",
					"maxclass" : "newobj",
					"numinlets" : 1,
					"numoutlets" : 0,
					"patching_rect" : [ 1638.0, 601.0, 49.0, 22.0 ],
					"style" : "",
					"text" : "s rightx"
				}

			}
, 			{
				"box" : 				{
					"color" : [ 0.317647, 0.654902, 0.976471, 1.0 ],
					"id" : "obj-33",
					"maxclass" : "newobj",
					"numinlets" : 0,
					"numoutlets" : 1,
					"outlettype" : [ "" ],
					"patching_rect" : [ 1492.5, 715.0, 40.0, 22.0 ],
					"style" : "",
					"text" : "r leftz"
				}

			}
, 			{
				"box" : 				{
					"color" : [ 0.999996, 0.999939, 0.041033, 1.0 ],
					"id" : "obj-34",
					"maxclass" : "newobj",
					"numinlets" : 0,
					"numoutlets" : 1,
					"outlettype" : [ "" ],
					"patching_rect" : [ 1434.5, 715.0, 40.0, 22.0 ],
					"style" : "",
					"text" : "r lefty"
				}

			}
, 			{
				"box" : 				{
					"color" : [ 0.784314, 0.145098, 0.023529, 1.0 ],
					"id" : "obj-35",
					"maxclass" : "newobj",
					"numinlets" : 0,
					"numoutlets" : 1,
					"outlettype" : [ "" ],
					"patching_rect" : [ 1375.0, 715.0, 40.0, 22.0 ],
					"style" : "",
					"text" : "r leftx"
				}

			}
, 			{
				"box" : 				{
					"color" : [ 0.317647, 0.654902, 0.976471, 1.0 ],
					"id" : "obj-36",
					"maxclass" : "newobj",
					"numinlets" : 1,
					"numoutlets" : 0,
					"patching_rect" : [ 1463.0, 601.0, 42.0, 22.0 ],
					"style" : "",
					"text" : "s leftz"
				}

			}
, 			{
				"box" : 				{
					"color" : [ 0.999996, 0.999939, 0.041033, 1.0 ],
					"id" : "obj-37",
					"maxclass" : "newobj",
					"numinlets" : 1,
					"numoutlets" : 0,
					"patching_rect" : [ 1419.0, 601.0, 42.0, 22.0 ],
					"style" : "",
					"text" : "s lefty"
				}

			}
, 			{
				"box" : 				{
					"color" : [ 0.784314, 0.145098, 0.023529, 1.0 ],
					"id" : "obj-38",
					"maxclass" : "newobj",
					"numinlets" : 1,
					"numoutlets" : 0,
					"patching_rect" : [ 1375.0, 601.0, 42.0, 22.0 ],
					"style" : "",
					"text" : "s leftx"
				}

			}
, 			{
				"box" : 				{
					"color" : [ 1.0, 1.0, 1.0, 1.0 ],
					"id" : "obj-39",
					"maxclass" : "newobj",
					"numinlets" : 1,
					"numoutlets" : 0,
					"patching_rect" : [ 1901.322388, 482.0, 51.0, 22.0 ],
					"style" : "",
					"text" : "s rhand"
				}

			}
, 			{
				"box" : 				{
					"color" : [ 1.0, 1.0, 1.0, 1.0 ],
					"id" : "obj-40",
					"maxclass" : "newobj",
					"numinlets" : 1,
					"numoutlets" : 0,
					"patching_rect" : [ 1842.768677, 482.0, 49.0, 22.0 ],
					"style" : "",
					"text" : "s lhand"
				}

			}
, 			{
				"box" : 				{
					"fontface" : 1,
					"fontsize" : 18.0,
					"id" : "obj-52",
					"maxclass" : "comment",
					"numinlets" : 1,
					"numoutlets" : 0,
					"patching_rect" : [ 1694.0, 652.0, 125.0, 27.0 ],
					"presentation" : 1,
					"presentation_rect" : [ 400.0, 359.0, 125.0, 27.0 ],
					"style" : "",
					"text" : "RIGHT HAND",
					"textcolor" : [ 0.317647, 0.654902, 0.976471, 1.0 ]
				}

			}
, 			{
				"box" : 				{
					"fontface" : 1,
					"fontsize" : 18.0,
					"id" : "obj-51",
					"maxclass" : "comment",
					"numinlets" : 1,
					"numoutlets" : 0,
					"patching_rect" : [ 1420.0, 652.0, 114.0, 27.0 ],
					"presentation" : 1,
					"presentation_rect" : [ 136.0, 359.0, 114.0, 27.0 ],
					"style" : "",
					"text" : "LEFT HAND",
					"textcolor" : [ 0.317647, 0.654902, 0.976471, 1.0 ]
				}

			}
, 			{
				"box" : 				{
					"id" : "obj-41",
					"maxclass" : "comment",
					"numinlets" : 1,
					"numoutlets" : 0,
					"patching_rect" : [ 1814.0, 630.0, 46.0, 20.0 ],
					"presentation" : 1,
					"presentation_rect" : [ 519.0, 545.0, 46.0, 20.0 ],
					"style" : "",
					"text" : "PITCH",
					"textcolor" : [ 0.011765, 0.396078, 0.752941, 1.0 ]
				}

			}
, 			{
				"box" : 				{
					"id" : "obj-42",
					"maxclass" : "comment",
					"numinlets" : 1,
					"numoutlets" : 0,
					"patching_rect" : [ 1770.0, 630.0, 42.0, 20.0 ],
					"presentation" : 1,
					"presentation_rect" : [ 477.0, 545.0, 42.0, 20.0 ],
					"style" : "",
					"text" : "ROLL",
					"textcolor" : [ 0.011765, 0.396078, 0.752941, 1.0 ]
				}

			}
, 			{
				"box" : 				{
					"id" : "obj-64",
					"maxclass" : "comment",
					"numinlets" : 1,
					"numoutlets" : 0,
					"patching_rect" : [ 1727.0, 630.0, 19.0, 20.0 ],
					"presentation" : 1,
					"presentation_rect" : [ 445.0, 545.0, 19.0, 20.0 ],
					"style" : "",
					"text" : "Z",
					"textcolor" : [ 0.011765, 0.396078, 0.752941, 1.0 ]
				}

			}
, 			{
				"box" : 				{
					"id" : "obj-66",
					"maxclass" : "comment",
					"numinlets" : 1,
					"numoutlets" : 0,
					"patching_rect" : [ 1683.0, 630.0, 19.0, 20.0 ],
					"presentation" : 1,
					"presentation_rect" : [ 400.0, 545.0, 19.0, 20.0 ],
					"style" : "",
					"text" : "Y",
					"textcolor" : [ 0.011765, 0.396078, 0.752941, 1.0 ]
				}

			}
, 			{
				"box" : 				{
					"id" : "obj-68",
					"maxclass" : "comment",
					"numinlets" : 1,
					"numoutlets" : 0,
					"patching_rect" : [ 1638.0, 630.0, 19.0, 20.0 ],
					"presentation" : 1,
					"presentation_rect" : [ 355.0, 545.0, 19.0, 20.0 ],
					"style" : "",
					"text" : "X",
					"textcolor" : [ 0.011765, 0.396078, 0.752941, 1.0 ]
				}

			}
, 			{
				"box" : 				{
					"elementcolor" : [ 0.011765, 0.396078, 0.752941, 1.0 ],
					"id" : "obj-70",
					"knobcolor" : [ 0.317647, 0.654902, 0.976471, 1.0 ],
					"maxclass" : "slider",
					"numinlets" : 1,
					"numoutlets" : 1,
					"outlettype" : [ "" ],
					"parameter_enable" : 0,
					"patching_rect" : [ 1814.0, 449.0, 20.0, 140.0 ],
					"presentation" : 1,
					"presentation_rect" : [ 532.0, 395.0, 20.0, 140.0 ],
					"style" : ""
				}

			}
, 			{
				"box" : 				{
					"elementcolor" : [ 0.011765, 0.396078, 0.752941, 1.0 ],
					"id" : "obj-83",
					"knobcolor" : [ 0.317647, 0.654902, 0.976471, 1.0 ],
					"maxclass" : "slider",
					"numinlets" : 1,
					"numoutlets" : 1,
					"outlettype" : [ "" ],
					"parameter_enable" : 0,
					"patching_rect" : [ 1770.0, 449.0, 20.0, 140.0 ],
					"presentation" : 1,
					"presentation_rect" : [ 488.0, 395.0, 20.0, 140.0 ],
					"style" : ""
				}

			}
, 			{
				"box" : 				{
					"elementcolor" : [ 0.011765, 0.396078, 0.752941, 1.0 ],
					"id" : "obj-89",
					"knobcolor" : [ 0.317647, 0.654902, 0.976471, 1.0 ],
					"maxclass" : "slider",
					"numinlets" : 1,
					"numoutlets" : 1,
					"outlettype" : [ "" ],
					"parameter_enable" : 0,
					"patching_rect" : [ 1726.0, 449.0, 20.0, 140.0 ],
					"presentation" : 1,
					"presentation_rect" : [ 444.0, 395.0, 20.0, 140.0 ],
					"style" : ""
				}

			}
, 			{
				"box" : 				{
					"elementcolor" : [ 0.011765, 0.396078, 0.752941, 1.0 ],
					"id" : "obj-98",
					"knobcolor" : [ 0.317647, 0.654902, 0.976471, 1.0 ],
					"maxclass" : "slider",
					"numinlets" : 1,
					"numoutlets" : 1,
					"outlettype" : [ "" ],
					"parameter_enable" : 0,
					"patching_rect" : [ 1682.0, 449.0, 20.0, 140.0 ],
					"presentation" : 1,
					"presentation_rect" : [ 400.0, 395.0, 20.0, 140.0 ],
					"style" : ""
				}

			}
, 			{
				"box" : 				{
					"elementcolor" : [ 0.011765, 0.396078, 0.752941, 1.0 ],
					"id" : "obj-99",
					"knobcolor" : [ 0.317647, 0.654902, 0.976471, 1.0 ],
					"maxclass" : "slider",
					"numinlets" : 1,
					"numoutlets" : 1,
					"outlettype" : [ "" ],
					"parameter_enable" : 0,
					"patching_rect" : [ 1638.0, 449.0, 20.0, 140.0 ],
					"presentation" : 1,
					"presentation_rect" : [ 355.0, 395.0, 20.0, 140.0 ],
					"style" : ""
				}

			}
, 			{
				"box" : 				{
					"id" : "obj-100",
					"maxclass" : "comment",
					"numinlets" : 1,
					"numoutlets" : 0,
					"patching_rect" : [ 1551.0, 630.0, 46.0, 20.0 ],
					"presentation" : 1,
					"presentation_rect" : [ 255.0, 545.0, 46.0, 20.0 ],
					"style" : "",
					"text" : "PITCH",
					"textcolor" : [ 0.011765, 0.396078, 0.752941, 1.0 ]
				}

			}
, 			{
				"box" : 				{
					"id" : "obj-101",
					"maxclass" : "comment",
					"numinlets" : 1,
					"numoutlets" : 0,
					"patching_rect" : [ 1507.0, 630.0, 42.0, 20.0 ],
					"presentation" : 1,
					"presentation_rect" : [ 213.0, 545.0, 42.0, 20.0 ],
					"style" : "",
					"text" : "ROLL",
					"textcolor" : [ 0.011765, 0.396078, 0.752941, 1.0 ]
				}

			}
, 			{
				"box" : 				{
					"id" : "obj-102",
					"maxclass" : "comment",
					"numinlets" : 1,
					"numoutlets" : 0,
					"patching_rect" : [ 1464.0, 630.0, 19.0, 20.0 ],
					"presentation" : 1,
					"presentation_rect" : [ 181.0, 545.0, 19.0, 20.0 ],
					"style" : "",
					"text" : "Z",
					"textcolor" : [ 0.011765, 0.396078, 0.752941, 1.0 ]
				}

			}
, 			{
				"box" : 				{
					"id" : "obj-103",
					"maxclass" : "comment",
					"numinlets" : 1,
					"numoutlets" : 0,
					"patching_rect" : [ 1420.0, 630.0, 19.0, 20.0 ],
					"presentation" : 1,
					"presentation_rect" : [ 136.0, 545.0, 19.0, 20.0 ],
					"style" : "",
					"text" : "Y",
					"textcolor" : [ 0.011765, 0.396078, 0.752941, 1.0 ]
				}

			}
, 			{
				"box" : 				{
					"id" : "obj-104",
					"maxclass" : "comment",
					"numinlets" : 1,
					"numoutlets" : 0,
					"patching_rect" : [ 1375.0, 630.0, 19.0, 20.0 ],
					"presentation" : 1,
					"presentation_rect" : [ 92.0, 545.0, 19.0, 20.0 ],
					"style" : "",
					"text" : "X",
					"textcolor" : [ 0.011765, 0.396078, 0.752941, 1.0 ]
				}

			}
, 			{
				"box" : 				{
					"elementcolor" : [ 0.011765, 0.396078, 0.752941, 1.0 ],
					"id" : "obj-106",
					"knobcolor" : [ 0.317647, 0.654902, 0.976471, 1.0 ],
					"maxclass" : "slider",
					"numinlets" : 1,
					"numoutlets" : 1,
					"outlettype" : [ "" ],
					"parameter_enable" : 0,
					"patching_rect" : [ 1551.0, 449.0, 20.0, 140.0 ],
					"presentation" : 1,
					"presentation_rect" : [ 268.0, 395.0, 20.0, 140.0 ],
					"style" : ""
				}

			}
, 			{
				"box" : 				{
					"elementcolor" : [ 0.011765, 0.396078, 0.752941, 1.0 ],
					"id" : "obj-108",
					"knobcolor" : [ 0.317647, 0.654902, 0.976471, 1.0 ],
					"maxclass" : "slider",
					"numinlets" : 1,
					"numoutlets" : 1,
					"outlettype" : [ "" ],
					"parameter_enable" : 0,
					"patching_rect" : [ 1507.0, 449.0, 20.0, 140.0 ],
					"presentation" : 1,
					"presentation_rect" : [ 224.0, 395.0, 20.0, 140.0 ],
					"style" : ""
				}

			}
, 			{
				"box" : 				{
					"elementcolor" : [ 0.011765, 0.396078, 0.752941, 1.0 ],
					"id" : "obj-109",
					"knobcolor" : [ 0.317647, 0.654902, 0.976471, 1.0 ],
					"maxclass" : "slider",
					"numinlets" : 1,
					"numoutlets" : 1,
					"outlettype" : [ "" ],
					"parameter_enable" : 0,
					"patching_rect" : [ 1463.0, 449.0, 20.0, 140.0 ],
					"presentation" : 1,
					"presentation_rect" : [ 180.0, 395.0, 20.0, 140.0 ],
					"style" : ""
				}

			}
, 			{
				"box" : 				{
					"elementcolor" : [ 0.011765, 0.396078, 0.752941, 1.0 ],
					"id" : "obj-112",
					"knobcolor" : [ 0.317647, 0.654902, 0.976471, 1.0 ],
					"maxclass" : "slider",
					"numinlets" : 1,
					"numoutlets" : 1,
					"outlettype" : [ "" ],
					"parameter_enable" : 0,
					"patching_rect" : [ 1419.0, 449.0, 20.0, 140.0 ],
					"presentation" : 1,
					"presentation_rect" : [ 136.0, 395.0, 20.0, 140.0 ],
					"style" : ""
				}

			}
, 			{
				"box" : 				{
					"elementcolor" : [ 0.011765, 0.396078, 0.752941, 1.0 ],
					"id" : "obj-113",
					"knobcolor" : [ 0.317647, 0.654902, 0.976471, 1.0 ],
					"maxclass" : "slider",
					"numinlets" : 1,
					"numoutlets" : 1,
					"outlettype" : [ "" ],
					"parameter_enable" : 0,
					"patching_rect" : [ 1375.0, 449.0, 20.0, 140.0 ],
					"presentation" : 1,
					"presentation_rect" : [ 92.0, 395.0, 20.0, 140.0 ],
					"style" : ""
				}

			}
, 			{
				"box" : 				{
					"id" : "obj-114",
					"maxclass" : "newobj",
					"numinlets" : 13,
					"numoutlets" : 13,
					"outlettype" : [ "", "", "", "", "", "", "", "", "", "", "", "", "" ],
					"patching_rect" : [ 1375.0, 409.0, 580.322327, 22.0 ],
					"style" : "",
					"text" : "route 101 102 103 104 105 111 112 113 114 115 106 116"
				}

			}
, 			{
				"box" : 				{
					"id" : "obj-115",
					"maxclass" : "newobj",
					"numinlets" : 1,
					"numoutlets" : 1,
					"outlettype" : [ "" ],
					"patching_rect" : [ 1285.0, 334.0, 74.0, 22.0 ],
					"style" : "",
					"text" : "prepend set"
				}

			}
, 			{
				"box" : 				{
					"id" : "obj-116",
					"maxclass" : "newobj",
					"numinlets" : 2,
					"numoutlets" : 1,
					"outlettype" : [ "" ],
					"patching_rect" : [ 1375.0, 374.0, 36.0, 22.0 ],
					"style" : "",
					"text" : "pack"
				}

			}
, 			{
				"box" : 				{
					"id" : "obj-117",
					"maxclass" : "newobj",
					"numinlets" : 1,
					"numoutlets" : 2,
					"outlettype" : [ "bang", "int" ],
					"patching_rect" : [ 1374.0, 334.0, 43.0, 22.0 ],
					"style" : "",
					"text" : "t b i"
				}

			}
, 			{
				"box" : 				{
					"id" : "obj-118",
					"maxclass" : "newobj",
					"numinlets" : 3,
					"numoutlets" : 1,
					"outlettype" : [ "" ],
					"patching_rect" : [ 1226.0, 334.0, 54.0, 22.0 ],
					"style" : "",
					"text" : "pack i i i"
				}

			}
, 			{
				"box" : 				{
					"color" : [ 0.113725, 0.580392, 0.737255, 1.0 ],
					"id" : "obj-120",
					"maxclass" : "newobj",
					"numinlets" : 1,
					"numoutlets" : 3,
					"outlettype" : [ "int", "int", "int" ],
					"patching_rect" : [ 1226.0, 303.0, 119.0, 22.0 ],
					"style" : "",
					"text" : "ctlin",
					"textcolor" : [ 0.317647, 0.654902, 0.976471, 1.0 ]
				}

			}
, 			{
				"box" : 				{
					"angle" : 270.0,
					"grad1" : [ 0.0, 0.0, 0.0, 1.0 ],
					"grad2" : [ 0.0, 0.0, 0.0, 1.0 ],
					"id" : "obj-121",
					"maxclass" : "panel",
					"mode" : 1,
					"numinlets" : 1,
					"numoutlets" : 0,
					"patching_rect" : [ 1209.0, 405.0, 128.0, 128.0 ],
					"presentation" : 1,
					"presentation_rect" : [ 19.0, 275.0, 695.0, 329.0 ],
					"proportion" : 0.39,
					"style" : ""
				}

			}
, 			{
				"box" : 				{
					"angle" : 270.0,
					"grad1" : [ 0.317647, 0.654902, 0.976471, 1.0 ],
					"grad2" : [ 0.011765, 0.396078, 0.752941, 1.0 ],
					"id" : "obj-122",
					"maxclass" : "panel",
					"mode" : 1,
					"numinlets" : 1,
					"numoutlets" : 0,
					"patching_rect" : [ 1362.0, 702.0, 671.0, 101.0 ],
					"proportion" : 0.39,
					"style" : ""
				}

			}
, 			{
				"box" : 				{
					"angle" : 270.0,
					"grad1" : [ 0.317647, 0.654902, 0.976471, 1.0 ],
					"grad2" : [ 0.317647, 0.654902, 0.976471, 1.0 ],
					"id" : "obj-123",
					"maxclass" : "panel",
					"mode" : 1,
					"numinlets" : 1,
					"numoutlets" : 0,
					"patching_rect" : [ 1205.0, 209.0, 828.0, 594.0 ],
					"proportion" : 0.39,
					"style" : ""
				}

			}
, 			{
				"box" : 				{
					"angle" : 270.0,
					"grad1" : [ 0.0, 0.0, 0.0, 1.0 ],
					"grad2" : [ 0.0, 0.0, 0.0, 1.0 ],
					"id" : "obj-124",
					"maxclass" : "panel",
					"mode" : 1,
					"numinlets" : 1,
					"numoutlets" : 0,
					"patching_rect" : [ 1221.0, 414.0, 128.0, 128.0 ],
					"presentation" : 1,
					"presentation_rect" : [ 19.0, 209.0, 695.0, 72.0 ],
					"proportion" : 0.39,
					"rounded" : 10,
					"style" : ""
				}

			}
, 			{
				"box" : 				{
					"id" : "obj-119",
					"linecount" : 11,
					"maxclass" : "comment",
					"numinlets" : 1,
					"numoutlets" : 0,
					"patching_rect" : [ 674.0, 257.0, 150.0, 154.0 ],
					"presentation" : 1,
					"presentation_linecount" : 10,
					"presentation_rect" : [ 539.0, 37.5, 175.0, 141.0 ],
					"style" : "",
					"text" : "~ patch che controlla (una volta settato min. e max. come range di altezze) l'andamento frequenziale sul'asse Y della mano destra / la rotazione del polso della mano destra controlla l'ampiezza del segnale / la mano sinistra cambia la forma d'onda del segnale"
				}

			}
, 			{
				"box" : 				{
					"id" : "obj-107",
					"maxclass" : "number",
					"numinlets" : 1,
					"numoutlets" : 2,
					"outlettype" : [ "", "bang" ],
					"parameter_enable" : 0,
					"patching_rect" : [ 500.5, 89.0, 50.0, 22.0 ],
					"style" : ""
				}

			}
, 			{
				"box" : 				{
					"id" : "obj-105",
					"maxclass" : "number",
					"numinlets" : 1,
					"numoutlets" : 2,
					"outlettype" : [ "", "bang" ],
					"parameter_enable" : 0,
					"patching_rect" : [ 550.799988, 117.0, 50.0, 22.0 ],
					"style" : ""
				}

			}
, 			{
				"box" : 				{
					"id" : "obj-43",
					"maxclass" : "button",
					"numinlets" : 1,
					"numoutlets" : 1,
					"outlettype" : [ "bang" ],
					"patching_rect" : [ 1183.0, 117.0, 24.0, 24.0 ],
					"style" : ""
				}

			}
, 			{
				"box" : 				{
					"id" : "obj-59",
					"maxclass" : "button",
					"numinlets" : 1,
					"numoutlets" : 1,
					"outlettype" : [ "bang" ],
					"patching_rect" : [ 1078.0, 116.0, 24.0, 24.0 ],
					"style" : ""
				}

			}
, 			{
				"box" : 				{
					"id" : "obj-61",
					"maxclass" : "newobj",
					"numinlets" : 2,
					"numoutlets" : 2,
					"outlettype" : [ "bang", "" ],
					"patching_rect" : [ 1078.0, 69.0, 124.0, 22.0 ],
					"style" : "",
					"text" : "select"
				}

			}
, 			{
				"box" : 				{
					"id" : "obj-141",
					"maxclass" : "newobj",
					"numinlets" : 5,
					"numoutlets" : 4,
					"outlettype" : [ "int", "", "", "int" ],
					"patching_rect" : [ 602.5, 184.0, 61.0, 22.0 ],
					"style" : "",
					"text" : "counter 6"
				}

			}
, 			{
				"box" : 				{
					"id" : "obj-140",
					"maxclass" : "message",
					"numinlets" : 2,
					"numoutlets" : 1,
					"outlettype" : [ "" ],
					"patching_rect" : [ 1123.0, 199.0, 50.0, 22.0 ],
					"style" : "",
					"text" : "0"
				}

			}
, 			{
				"box" : 				{
					"id" : "obj-97",
					"maxclass" : "newobj",
					"numinlets" : 1,
					"numoutlets" : 1,
					"outlettype" : [ "" ],
					"patching_rect" : [ 111.5, 379.0, 72.0, 22.0 ],
					"style" : "",
					"text" : "loadmess 1"
				}

			}
, 			{
				"box" : 				{
					"id" : "obj-96",
					"maxclass" : "newobj",
					"numinlets" : 1,
					"numoutlets" : 1,
					"outlettype" : [ "" ],
					"patching_rect" : [ 179.0, 379.0, 85.0, 22.0 ],
					"style" : "",
					"text" : "loadmess 128"
				}

			}
, 			{
				"box" : 				{
					"id" : "obj-91",
					"maxclass" : "button",
					"numinlets" : 1,
					"numoutlets" : 1,
					"outlettype" : [ "bang" ],
					"patching_rect" : [ 707.5, 129.0, 24.0, 24.0 ],
					"style" : ""
				}

			}
, 			{
				"box" : 				{
					"id" : "obj-92",
					"maxclass" : "button",
					"numinlets" : 1,
					"numoutlets" : 1,
					"outlettype" : [ "bang" ],
					"patching_rect" : [ 602.5, 139.0, 24.0, 24.0 ],
					"style" : ""
				}

			}
, 			{
				"box" : 				{
					"id" : "obj-95",
					"maxclass" : "newobj",
					"numinlets" : 2,
					"numoutlets" : 2,
					"outlettype" : [ "bang", "" ],
					"patching_rect" : [ 602.5, 99.0, 124.0, 22.0 ],
					"style" : "",
					"text" : "select"
				}

			}
, 			{
				"box" : 				{
					"id" : "obj-81",
					"maxclass" : "newobj",
					"numinlets" : 1,
					"numoutlets" : 1,
					"outlettype" : [ "signal" ],
					"patching_rect" : [ 1119.5, 129.0, 41.0, 22.0 ],
					"style" : "",
					"text" : "mtof~"
				}

			}
, 			{
				"box" : 				{
					"id" : "obj-85",
					"maxclass" : "newobj",
					"numinlets" : 3,
					"numoutlets" : 1,
					"outlettype" : [ "signal" ],
					"patcher" : 					{
						"fileversion" : 1,
						"appversion" : 						{
							"major" : 7,
							"minor" : 0,
							"revision" : 0,
							"architecture" : "x64",
							"modernui" : 1
						}
,
						"rect" : [ 606.0, 112.0, 640.0, 480.0 ],
						"bglocked" : 0,
						"openinpresentation" : 0,
						"default_fontsize" : 12.0,
						"default_fontface" : 0,
						"default_fontname" : "Arial",
						"gridonopen" : 1,
						"gridsize" : [ 15.0, 15.0 ],
						"gridsnaponopen" : 1,
						"objectsnaponopen" : 1,
						"statusbarvisible" : 2,
						"toolbarvisible" : 1,
						"lefttoolbarpinned" : 0,
						"toptoolbarpinned" : 0,
						"righttoolbarpinned" : 0,
						"bottomtoolbarpinned" : 0,
						"toolbars_unpinned_last_save" : 0,
						"tallnewobj" : 0,
						"boxanimatetime" : 200,
						"enablehscroll" : 1,
						"enablevscroll" : 1,
						"devicewidth" : 0.0,
						"description" : "",
						"digest" : "",
						"tags" : "",
						"style" : "",
						"subpatcher_template" : "",
						"boxes" : [ 							{
								"box" : 								{
									"comment" : "",
									"id" : "obj-10",
									"maxclass" : "inlet",
									"numinlets" : 0,
									"numoutlets" : 1,
									"outlettype" : [ "" ],
									"patching_rect" : [ 369.75, 40.0, 30.0, 30.0 ],
									"style" : ""
								}

							}
, 							{
								"box" : 								{
									"id" : "obj-5",
									"maxclass" : "newobj",
									"numinlets" : 1,
									"numoutlets" : 1,
									"outlettype" : [ "signal" ],
									"patching_rect" : [ 369.75, 100.0, 41.0, 22.0 ],
									"style" : "",
									"text" : "click~"
								}

							}
, 							{
								"box" : 								{
									"comment" : "freq",
									"hint" : "",
									"id" : "obj-4",
									"maxclass" : "inlet",
									"numinlets" : 0,
									"numoutlets" : 1,
									"outlettype" : [ "signal" ],
									"patching_rect" : [ 98.400024, 40.0, 30.0, 30.0 ],
									"style" : ""
								}

							}
, 							{
								"box" : 								{
									"id" : "obj-18",
									"maxclass" : "newobj",
									"numinlets" : 2,
									"numoutlets" : 1,
									"outlettype" : [ "int" ],
									"patching_rect" : [ 50.0, 102.0, 29.5, 22.0 ],
									"style" : "",
									"text" : "+ 1"
								}

							}
, 							{
								"box" : 								{
									"id" : "obj-9",
									"maxclass" : "newobj",
									"numinlets" : 1,
									"numoutlets" : 1,
									"outlettype" : [ "signal" ],
									"patching_rect" : [ 323.75, 100.0, 40.0, 22.0 ],
									"style" : "",
									"text" : "pink~"
								}

							}
, 							{
								"box" : 								{
									"id" : "obj-8",
									"maxclass" : "newobj",
									"numinlets" : 1,
									"numoutlets" : 1,
									"outlettype" : [ "signal" ],
									"patching_rect" : [ 273.125, 100.0, 46.0, 22.0 ],
									"style" : "",
									"text" : "noise~"
								}

							}
, 							{
								"box" : 								{
									"id" : "obj-7",
									"maxclass" : "newobj",
									"numinlets" : 2,
									"numoutlets" : 1,
									"outlettype" : [ "signal" ],
									"patching_rect" : [ 185.0, 100.0, 39.0, 22.0 ],
									"style" : "",
									"text" : "saw~"
								}

							}
, 							{
								"box" : 								{
									"id" : "obj-6",
									"maxclass" : "newobj",
									"numinlets" : 3,
									"numoutlets" : 1,
									"outlettype" : [ "signal" ],
									"patching_rect" : [ 228.5, 100.0, 40.0, 22.0 ],
									"style" : "",
									"text" : "rect~"
								}

							}
, 							{
								"box" : 								{
									"id" : "obj-3",
									"maxclass" : "newobj",
									"numinlets" : 3,
									"numoutlets" : 1,
									"outlettype" : [ "signal" ],
									"patching_rect" : [ 139.25, 100.0, 40.0, 22.0 ],
									"style" : "",
									"text" : "tri~"
								}

							}
, 							{
								"box" : 								{
									"id" : "obj-2",
									"maxclass" : "newobj",
									"numinlets" : 2,
									"numoutlets" : 1,
									"outlettype" : [ "signal" ],
									"patching_rect" : [ 90.900024, 100.0, 45.0, 22.0 ],
									"style" : "",
									"text" : "cycle~"
								}

							}
, 							{
								"box" : 								{
									"id" : "obj-1",
									"maxclass" : "newobj",
									"numinlets" : 8,
									"numoutlets" : 1,
									"outlettype" : [ "signal" ],
									"patching_rect" : [ 50.0, 137.0, 331.375, 22.0 ],
									"style" : "",
									"text" : "selector~ 7"
								}

							}
, 							{
								"box" : 								{
									"comment" : "",
									"id" : "obj-20",
									"maxclass" : "inlet",
									"numinlets" : 0,
									"numoutlets" : 1,
									"outlettype" : [ "" ],
									"patching_rect" : [ 50.0, 40.0, 30.0, 30.0 ],
									"style" : ""
								}

							}
, 							{
								"box" : 								{
									"comment" : "",
									"id" : "obj-22",
									"maxclass" : "outlet",
									"numinlets" : 1,
									"numoutlets" : 0,
									"patching_rect" : [ 50.0, 219.0, 30.0, 30.0 ],
									"style" : ""
								}

							}
 ],
						"lines" : [ 							{
								"patchline" : 								{
									"destination" : [ "obj-22", 0 ],
									"disabled" : 0,
									"hidden" : 0,
									"source" : [ "obj-1", 0 ]
								}

							}
, 							{
								"patchline" : 								{
									"destination" : [ "obj-5", 0 ],
									"disabled" : 0,
									"hidden" : 0,
									"source" : [ "obj-10", 0 ]
								}

							}
, 							{
								"patchline" : 								{
									"destination" : [ "obj-1", 0 ],
									"disabled" : 0,
									"hidden" : 0,
									"source" : [ "obj-18", 0 ]
								}

							}
, 							{
								"patchline" : 								{
									"destination" : [ "obj-1", 1 ],
									"disabled" : 0,
									"hidden" : 0,
									"source" : [ "obj-2", 0 ]
								}

							}
, 							{
								"patchline" : 								{
									"destination" : [ "obj-18", 0 ],
									"disabled" : 0,
									"hidden" : 0,
									"source" : [ "obj-20", 0 ]
								}

							}
, 							{
								"patchline" : 								{
									"destination" : [ "obj-1", 2 ],
									"disabled" : 0,
									"hidden" : 0,
									"source" : [ "obj-3", 0 ]
								}

							}
, 							{
								"patchline" : 								{
									"destination" : [ "obj-2", 0 ],
									"disabled" : 0,
									"hidden" : 0,
									"midpoints" : [ 107.900024, 81.5, 100.400024, 81.5 ],
									"source" : [ "obj-4", 0 ]
								}

							}
, 							{
								"patchline" : 								{
									"destination" : [ "obj-3", 0 ],
									"disabled" : 0,
									"hidden" : 0,
									"midpoints" : [ 107.900024, 81.5, 148.75, 81.5 ],
									"source" : [ "obj-4", 0 ]
								}

							}
, 							{
								"patchline" : 								{
									"destination" : [ "obj-6", 0 ],
									"disabled" : 0,
									"hidden" : 0,
									"midpoints" : [ 107.900024, 81.5, 238.0, 81.5 ],
									"source" : [ "obj-4", 0 ]
								}

							}
, 							{
								"patchline" : 								{
									"destination" : [ "obj-7", 0 ],
									"disabled" : 0,
									"hidden" : 0,
									"midpoints" : [ 107.900024, 81.5, 194.5, 81.5 ],
									"source" : [ "obj-4", 0 ]
								}

							}
, 							{
								"patchline" : 								{
									"destination" : [ "obj-1", 7 ],
									"disabled" : 0,
									"hidden" : 0,
									"source" : [ "obj-5", 0 ]
								}

							}
, 							{
								"patchline" : 								{
									"destination" : [ "obj-1", 4 ],
									"disabled" : 0,
									"hidden" : 0,
									"source" : [ "obj-6", 0 ]
								}

							}
, 							{
								"patchline" : 								{
									"destination" : [ "obj-1", 3 ],
									"disabled" : 0,
									"hidden" : 0,
									"source" : [ "obj-7", 0 ]
								}

							}
, 							{
								"patchline" : 								{
									"destination" : [ "obj-1", 5 ],
									"disabled" : 0,
									"hidden" : 0,
									"source" : [ "obj-8", 0 ]
								}

							}
, 							{
								"patchline" : 								{
									"destination" : [ "obj-1", 6 ],
									"disabled" : 0,
									"hidden" : 0,
									"source" : [ "obj-9", 0 ]
								}

							}
 ]
					}
,
					"patching_rect" : [ 1070.5, 161.0, 117.0, 22.0 ],
					"saved_object_attributes" : 					{
						"description" : "",
						"digest" : "",
						"globalpatchername" : "",
						"style" : "",
						"tags" : ""
					}
,
					"style" : "",
					"text" : "p oscillator"
				}

			}
, 			{
				"box" : 				{
					"color" : [ 1.0, 1.0, 1.0, 1.0 ],
					"id" : "obj-62",
					"maxclass" : "newobj",
					"numinlets" : 0,
					"numoutlets" : 1,
					"outlettype" : [ "" ],
					"patching_rect" : [ 1078.0, 34.0, 49.0, 22.0 ],
					"style" : "",
					"text" : "r rhand"
				}

			}
, 			{
				"box" : 				{
					"color" : [ 1.0, 1.0, 1.0, 1.0 ],
					"id" : "obj-4",
					"maxclass" : "newobj",
					"numinlets" : 0,
					"numoutlets" : 1,
					"outlettype" : [ "" ],
					"patching_rect" : [ 674.0, 60.0, 47.0, 22.0 ],
					"style" : "",
					"text" : "r lhand"
				}

			}
, 			{
				"box" : 				{
					"color" : [ 0.702269, 0.811747, 0.303388, 1.0 ],
					"id" : "obj-58",
					"maxclass" : "newobj",
					"numinlets" : 0,
					"numoutlets" : 1,
					"outlettype" : [ "" ],
					"patching_rect" : [ 353.5, 84.0, 67.0, 22.0 ],
					"style" : "",
					"text" : "r rightpitch"
				}

			}
, 			{
				"box" : 				{
					"color" : [ 0.941176, 0.690196, 0.196078, 1.0 ],
					"id" : "obj-5",
					"maxclass" : "newobj",
					"numinlets" : 0,
					"numoutlets" : 1,
					"outlettype" : [ "" ],
					"patching_rect" : [ 146.0, 203.0, 57.0, 22.0 ],
					"style" : "",
					"text" : "r rightroll"
				}

			}
, 			{
				"box" : 				{
					"color" : [ 0.702269, 0.811747, 0.303388, 1.0 ],
					"id" : "obj-54",
					"maxclass" : "newobj",
					"numinlets" : 0,
					"numoutlets" : 1,
					"outlettype" : [ "" ],
					"patching_rect" : [ 353.5, 43.0, 59.0, 22.0 ],
					"style" : "",
					"text" : "r leftpitch"
				}

			}
, 			{
				"box" : 				{
					"color" : [ 0.941176, 0.690196, 0.196078, 1.0 ],
					"id" : "obj-55",
					"maxclass" : "newobj",
					"numinlets" : 0,
					"numoutlets" : 1,
					"outlettype" : [ "" ],
					"patching_rect" : [ 293.731445, 43.0, 50.0, 22.0 ],
					"style" : "",
					"text" : "r leftroll"
				}

			}
, 			{
				"box" : 				{
					"color" : [ 0.317647, 0.654902, 0.976471, 1.0 ],
					"id" : "obj-8",
					"maxclass" : "newobj",
					"numinlets" : 0,
					"numoutlets" : 1,
					"outlettype" : [ "" ],
					"patching_rect" : [ 239.731445, 84.0, 47.0, 22.0 ],
					"style" : "",
					"text" : "r rightz"
				}

			}
, 			{
				"box" : 				{
					"color" : [ 0.999996, 0.999939, 0.041033, 1.0 ],
					"id" : "obj-10",
					"maxclass" : "newobj",
					"numinlets" : 0,
					"numoutlets" : 1,
					"outlettype" : [ "" ],
					"patching_rect" : [ 456.0, 117.0, 47.0, 22.0 ],
					"style" : "",
					"text" : "r righty"
				}

			}
, 			{
				"box" : 				{
					"color" : [ 0.784314, 0.145098, 0.023529, 1.0 ],
					"id" : "obj-11",
					"maxclass" : "newobj",
					"numinlets" : 0,
					"numoutlets" : 1,
					"outlettype" : [ "" ],
					"patching_rect" : [ 111.5, 78.0, 47.0, 22.0 ],
					"style" : "",
					"text" : "r rightx"
				}

			}
, 			{
				"box" : 				{
					"color" : [ 0.317647, 0.654902, 0.976471, 1.0 ],
					"id" : "obj-16",
					"maxclass" : "newobj",
					"numinlets" : 0,
					"numoutlets" : 1,
					"outlettype" : [ "" ],
					"patching_rect" : [ 240.731445, 43.0, 40.0, 22.0 ],
					"style" : "",
					"text" : "r leftz"
				}

			}
, 			{
				"box" : 				{
					"color" : [ 0.999996, 0.999939, 0.041033, 1.0 ],
					"id" : "obj-13",
					"maxclass" : "newobj",
					"numinlets" : 0,
					"numoutlets" : 1,
					"outlettype" : [ "" ],
					"patching_rect" : [ 179.0, 43.0, 40.0, 22.0 ],
					"style" : "",
					"text" : "r lefty"
				}

			}
, 			{
				"box" : 				{
					"color" : [ 0.784314, 0.145098, 0.023529, 1.0 ],
					"id" : "obj-14",
					"maxclass" : "newobj",
					"numinlets" : 0,
					"numoutlets" : 1,
					"outlettype" : [ "" ],
					"patching_rect" : [ 146.0, 146.0, 40.0, 22.0 ],
					"style" : "",
					"text" : "r leftx"
				}

			}
, 			{
				"box" : 				{
					"id" : "obj-50",
					"maxclass" : "newobj",
					"numinlets" : 2,
					"numoutlets" : 2,
					"outlettype" : [ "signal", "bang" ],
					"patching_rect" : [ 514.5, 221.0, 36.0, 22.0 ],
					"style" : "",
					"text" : "line~"
				}

			}
, 			{
				"box" : 				{
					"id" : "obj-48",
					"maxclass" : "newobj",
					"numinlets" : 6,
					"numoutlets" : 1,
					"outlettype" : [ "" ],
					"patching_rect" : [ 482.0, 157.0, 105.0, 22.0 ],
					"style" : "",
					"text" : "scale 0 127 36 84"
				}

			}
, 			{
				"box" : 				{
					"id" : "obj-49",
					"maxclass" : "newobj",
					"numinlets" : 1,
					"numoutlets" : 1,
					"outlettype" : [ "" ],
					"patching_rect" : [ 482.0, 190.0, 67.0, 22.0 ],
					"style" : "",
					"text" : "append 60"
				}

			}
, 			{
				"box" : 				{
					"id" : "obj-25",
					"maxclass" : "newobj",
					"numinlets" : 6,
					"numoutlets" : 1,
					"outlettype" : [ "" ],
					"patching_rect" : [ 146.0, 257.0, 99.0, 22.0 ],
					"style" : "",
					"text" : "scale 0 120 0. 1."
				}

			}
, 			{
				"box" : 				{
					"bgcolor" : [ 0.0, 0.0, 0.0, 1.0 ],
					"calccount" : 2,
					"fgcolor" : [ 0.317647, 0.654902, 0.976471, 1.0 ],
					"gridcolor" : [ 0.376471, 0.384314, 0.4, 0.0 ],
					"id" : "obj-20",
					"maxclass" : "scope~",
					"numinlets" : 2,
					"numoutlets" : 0,
					"patching_rect" : [ 358.0, 470.0, 130.0, 130.0 ],
					"presentation" : 1,
					"presentation_rect" : [ 255.0, 37.5, 130.0, 116.25 ],
					"style" : "",
					"trigger" : 1
				}

			}
, 			{
				"box" : 				{
					"id" : "obj-26",
					"maxclass" : "newobj",
					"numinlets" : 2,
					"numoutlets" : 1,
					"outlettype" : [ "signal" ],
					"patching_rect" : [ 295.0, 379.0, 29.5, 22.0 ],
					"style" : "",
					"text" : "*~"
				}

			}
, 			{
				"box" : 				{
					"id" : "obj-7",
					"maxclass" : "newobj",
					"numinlets" : 2,
					"numoutlets" : 2,
					"outlettype" : [ "signal", "bang" ],
					"patching_rect" : [ 146.0, 312.0, 36.0, 22.0 ],
					"style" : "",
					"text" : "line~"
				}

			}
, 			{
				"box" : 				{
					"annotation" : "",
					"id" : "obj-9",
					"maxclass" : "newobj",
					"numinlets" : 1,
					"numoutlets" : 1,
					"outlettype" : [ "" ],
					"patching_rect" : [ 146.0, 281.0, 67.0, 22.0 ],
					"style" : "default",
					"text" : "append 20"
				}

			}
, 			{
				"box" : 				{
					"id" : "obj-44",
					"maxclass" : "message",
					"numinlets" : 2,
					"numoutlets" : 1,
					"outlettype" : [ "" ],
					"patching_rect" : [ 168.0, 508.0, 33.0, 22.0 ],
					"style" : "",
					"text" : "stop"
				}

			}
, 			{
				"box" : 				{
					"id" : "obj-45",
					"maxclass" : "message",
					"numinlets" : 2,
					"numoutlets" : 1,
					"outlettype" : [ "" ],
					"patching_rect" : [ 211.0, 508.0, 74.0, 22.0 ],
					"style" : "",
					"text" : "startwindow"
				}

			}
, 			{
				"box" : 				{
					"id" : "obj-46",
					"maxclass" : "newobj",
					"numinlets" : 2,
					"numoutlets" : 0,
					"patching_rect" : [ 287.5, 566.0, 37.0, 22.0 ],
					"style" : "",
					"text" : "dac~"
				}

			}
, 			{
				"box" : 				{
					"id" : "obj-47",
					"maxclass" : "gain~",
					"numinlets" : 1,
					"numoutlets" : 2,
					"outlettype" : [ "signal", "int" ],
					"parameter_enable" : 0,
					"patching_rect" : [ 295.0, 414.0, 22.0, 140.0 ],
					"style" : ""
				}

			}
 ],
		"lines" : [ 			{
				"patchline" : 				{
					"destination" : [ "obj-48", 0 ],
					"disabled" : 0,
					"hidden" : 0,
					"source" : [ "obj-10", 0 ]
				}

			}
, 			{
				"patchline" : 				{
					"destination" : [ "obj-48", 4 ],
					"disabled" : 0,
					"hidden" : 0,
					"source" : [ "obj-105", 0 ]
				}

			}
, 			{
				"patchline" : 				{
					"color" : [ 0.131345, 0.999677, 0.023624, 1.0 ],
					"destination" : [ "obj-53", 0 ],
					"disabled" : 0,
					"hidden" : 0,
					"source" : [ "obj-106", 0 ]
				}

			}
, 			{
				"patchline" : 				{
					"destination" : [ "obj-48", 3 ],
					"disabled" : 0,
					"hidden" : 0,
					"source" : [ "obj-107", 0 ]
				}

			}
, 			{
				"patchline" : 				{
					"color" : [ 0.990416, 0.500269, 0.032866, 1.0 ],
					"destination" : [ "obj-23", 0 ],
					"disabled" : 0,
					"hidden" : 0,
					"source" : [ "obj-108", 0 ]
				}

			}
, 			{
				"patchline" : 				{
					"color" : [ 0.000111, 0.00176, 0.998218, 1.0 ],
					"destination" : [ "obj-36", 0 ],
					"disabled" : 0,
					"hidden" : 0,
					"source" : [ "obj-109", 0 ]
				}

			}
, 			{
				"patchline" : 				{
					"color" : [ 0.999996, 0.999939, 0.041033, 1.0 ],
					"destination" : [ "obj-37", 0 ],
					"disabled" : 0,
					"hidden" : 0,
					"source" : [ "obj-112", 0 ]
				}

			}
, 			{
				"patchline" : 				{
					"color" : [ 0.986246, 0.007121, 0.027434, 1.0 ],
					"destination" : [ "obj-38", 0 ],
					"disabled" : 0,
					"hidden" : 0,
					"source" : [ "obj-113", 0 ]
				}

			}
, 			{
				"patchline" : 				{
					"destination" : [ "obj-106", 0 ],
					"disabled" : 0,
					"hidden" : 0,
					"source" : [ "obj-114", 4 ]
				}

			}
, 			{
				"patchline" : 				{
					"destination" : [ "obj-108", 0 ],
					"disabled" : 0,
					"hidden" : 0,
					"source" : [ "obj-114", 3 ]
				}

			}
, 			{
				"patchline" : 				{
					"destination" : [ "obj-109", 0 ],
					"disabled" : 0,
					"hidden" : 0,
					"source" : [ "obj-114", 2 ]
				}

			}
, 			{
				"patchline" : 				{
					"destination" : [ "obj-112", 0 ],
					"disabled" : 0,
					"hidden" : 0,
					"source" : [ "obj-114", 1 ]
				}

			}
, 			{
				"patchline" : 				{
					"destination" : [ "obj-113", 0 ],
					"disabled" : 0,
					"hidden" : 0,
					"source" : [ "obj-114", 0 ]
				}

			}
, 			{
				"patchline" : 				{
					"destination" : [ "obj-70", 0 ],
					"disabled" : 0,
					"hidden" : 0,
					"midpoints" : [ 1805.491745, 437.5, 1823.5, 437.5 ],
					"source" : [ "obj-114", 9 ]
				}

			}
, 			{
				"patchline" : 				{
					"destination" : [ "obj-73", 0 ],
					"disabled" : 0,
					"hidden" : 0,
					"source" : [ "obj-114", 11 ]
				}

			}
, 			{
				"patchline" : 				{
					"destination" : [ "obj-74", 0 ],
					"disabled" : 0,
					"hidden" : 0,
					"source" : [ "obj-114", 10 ]
				}

			}
, 			{
				"patchline" : 				{
					"destination" : [ "obj-83", 0 ],
					"disabled" : 0,
					"hidden" : 0,
					"midpoints" : [ 1758.714885, 437.5, 1779.5, 437.5 ],
					"source" : [ "obj-114", 8 ]
				}

			}
, 			{
				"patchline" : 				{
					"destination" : [ "obj-89", 0 ],
					"disabled" : 0,
					"hidden" : 0,
					"midpoints" : [ 1711.938024, 437.5, 1735.5, 437.5 ],
					"source" : [ "obj-114", 7 ]
				}

			}
, 			{
				"patchline" : 				{
					"destination" : [ "obj-98", 0 ],
					"disabled" : 0,
					"hidden" : 0,
					"midpoints" : [ 1665.161163, 437.5, 1691.5, 437.5 ],
					"source" : [ "obj-114", 6 ]
				}

			}
, 			{
				"patchline" : 				{
					"destination" : [ "obj-99", 0 ],
					"disabled" : 0,
					"hidden" : 0,
					"midpoints" : [ 1618.384303, 437.5, 1647.5, 437.5 ],
					"source" : [ "obj-114", 5 ]
				}

			}
, 			{
				"patchline" : 				{
					"destination" : [ "obj-116", 0 ],
					"disabled" : 0,
					"hidden" : 0,
					"midpoints" : [ 1294.5, 364.5, 1384.5, 364.5 ],
					"source" : [ "obj-115", 0 ]
				}

			}
, 			{
				"patchline" : 				{
					"destination" : [ "obj-114", 0 ],
					"disabled" : 0,
					"hidden" : 0,
					"source" : [ "obj-116", 0 ]
				}

			}
, 			{
				"patchline" : 				{
					"destination" : [ "obj-116", 1 ],
					"disabled" : 0,
					"hidden" : 0,
					"midpoints" : [ 1407.5, 364.5, 1401.5, 364.5 ],
					"source" : [ "obj-117", 1 ]
				}

			}
, 			{
				"patchline" : 				{
					"destination" : [ "obj-116", 0 ],
					"disabled" : 0,
					"hidden" : 0,
					"source" : [ "obj-117", 0 ]
				}

			}
, 			{
				"patchline" : 				{
					"destination" : [ "obj-115", 0 ],
					"disabled" : 0,
					"hidden" : 0,
					"source" : [ "obj-120", 1 ]
				}

			}
, 			{
				"patchline" : 				{
					"destination" : [ "obj-117", 0 ],
					"disabled" : 0,
					"hidden" : 0,
					"source" : [ "obj-120", 0 ]
				}

			}
, 			{
				"patchline" : 				{
					"destination" : [ "obj-118", 2 ],
					"disabled" : 0,
					"hidden" : 0,
					"source" : [ "obj-120", 2 ]
				}

			}
, 			{
				"patchline" : 				{
					"destination" : [ "obj-118", 1 ],
					"disabled" : 0,
					"hidden" : 0,
					"source" : [ "obj-120", 1 ]
				}

			}
, 			{
				"patchline" : 				{
					"destination" : [ "obj-118", 0 ],
					"disabled" : 0,
					"hidden" : 0,
					"source" : [ "obj-120", 0 ]
				}

			}
, 			{
				"patchline" : 				{
					"destination" : [ "obj-145", 0 ],
					"disabled" : 0,
					"hidden" : 0,
					"source" : [ "obj-126", 0 ]
				}

			}
, 			{
				"patchline" : 				{
					"destination" : [ "obj-107", 0 ],
					"disabled" : 0,
					"hidden" : 0,
					"source" : [ "obj-131", 0 ]
				}

			}
, 			{
				"patchline" : 				{
					"destination" : [ "obj-143", 0 ],
					"disabled" : 0,
					"hidden" : 0,
					"source" : [ "obj-133", 0 ]
				}

			}
, 			{
				"patchline" : 				{
					"destination" : [ "obj-131", 0 ],
					"disabled" : 0,
					"hidden" : 0,
					"source" : [ "obj-134", 0 ]
				}

			}
, 			{
				"patchline" : 				{
					"destination" : [ "obj-133", 0 ],
					"disabled" : 0,
					"hidden" : 0,
					"source" : [ "obj-135", 0 ]
				}

			}
, 			{
				"patchline" : 				{
					"destination" : [ "obj-133", 0 ],
					"disabled" : 0,
					"hidden" : 0,
					"source" : [ "obj-141", 0 ]
				}

			}
, 			{
				"patchline" : 				{
					"destination" : [ "obj-143", 1 ],
					"disabled" : 0,
					"hidden" : 0,
					"source" : [ "obj-142", 0 ]
				}

			}
, 			{
				"patchline" : 				{
					"destination" : [ "obj-26", 1 ],
					"disabled" : 0,
					"hidden" : 0,
					"source" : [ "obj-143", 0 ]
				}

			}
, 			{
				"patchline" : 				{
					"destination" : [ "obj-44", 0 ],
					"disabled" : 0,
					"hidden" : 0,
					"source" : [ "obj-145", 0 ]
				}

			}
, 			{
				"patchline" : 				{
					"destination" : [ "obj-45", 0 ],
					"disabled" : 0,
					"hidden" : 0,
					"source" : [ "obj-145", 1 ]
				}

			}
, 			{
				"patchline" : 				{
					"destination" : [ "obj-105", 0 ],
					"disabled" : 0,
					"hidden" : 0,
					"source" : [ "obj-146", 0 ]
				}

			}
, 			{
				"patchline" : 				{
					"destination" : [ "obj-146", 0 ],
					"disabled" : 0,
					"hidden" : 0,
					"source" : [ "obj-147", 0 ]
				}

			}
, 			{
				"patchline" : 				{
					"destination" : [ "obj-9", 0 ],
					"disabled" : 0,
					"hidden" : 0,
					"source" : [ "obj-25", 0 ]
				}

			}
, 			{
				"patchline" : 				{
					"destination" : [ "obj-20", 0 ],
					"disabled" : 0,
					"hidden" : 0,
					"midpoints" : [ 304.5, 407.0, 367.5, 407.0 ],
					"source" : [ "obj-26", 0 ]
				}

			}
, 			{
				"patchline" : 				{
					"destination" : [ "obj-47", 0 ],
					"disabled" : 0,
					"hidden" : 0,
					"source" : [ "obj-26", 0 ]
				}

			}
, 			{
				"patchline" : 				{
					"destination" : [ "obj-95", 0 ],
					"disabled" : 0,
					"hidden" : 0,
					"source" : [ "obj-4", 0 ]
				}

			}
, 			{
				"patchline" : 				{
					"destination" : [ "obj-46", 0 ],
					"disabled" : 0,
					"hidden" : 0,
					"midpoints" : [ 177.5, 561.0, 273.0, 561.0, 273.0, 561.0, 297.0, 561.0 ],
					"source" : [ "obj-44", 0 ]
				}

			}
, 			{
				"patchline" : 				{
					"destination" : [ "obj-46", 0 ],
					"disabled" : 0,
					"hidden" : 0,
					"midpoints" : [ 220.5, 566.0, 297.0, 566.0 ],
					"source" : [ "obj-45", 0 ]
				}

			}
, 			{
				"patchline" : 				{
					"destination" : [ "obj-46", 1 ],
					"disabled" : 0,
					"hidden" : 0,
					"source" : [ "obj-47", 0 ]
				}

			}
, 			{
				"patchline" : 				{
					"destination" : [ "obj-46", 0 ],
					"disabled" : 0,
					"hidden" : 0,
					"source" : [ "obj-47", 0 ]
				}

			}
, 			{
				"patchline" : 				{
					"destination" : [ "obj-49", 0 ],
					"disabled" : 0,
					"hidden" : 0,
					"source" : [ "obj-48", 0 ]
				}

			}
, 			{
				"patchline" : 				{
					"destination" : [ "obj-50", 0 ],
					"disabled" : 0,
					"hidden" : 0,
					"source" : [ "obj-49", 0 ]
				}

			}
, 			{
				"patchline" : 				{
					"destination" : [ "obj-25", 0 ],
					"disabled" : 0,
					"hidden" : 0,
					"source" : [ "obj-5", 0 ]
				}

			}
, 			{
				"patchline" : 				{
					"destination" : [ "obj-142", 0 ],
					"disabled" : 0,
					"hidden" : 0,
					"source" : [ "obj-50", 0 ]
				}

			}
, 			{
				"patchline" : 				{
					"destination" : [ "obj-43", 0 ],
					"disabled" : 0,
					"hidden" : 0,
					"source" : [ "obj-61", 1 ]
				}

			}
, 			{
				"patchline" : 				{
					"destination" : [ "obj-59", 0 ],
					"disabled" : 0,
					"hidden" : 0,
					"source" : [ "obj-61", 0 ]
				}

			}
, 			{
				"patchline" : 				{
					"destination" : [ "obj-61", 0 ],
					"disabled" : 0,
					"hidden" : 0,
					"source" : [ "obj-62", 0 ]
				}

			}
, 			{
				"patchline" : 				{
					"destination" : [ "obj-26", 0 ],
					"disabled" : 0,
					"hidden" : 0,
					"midpoints" : [ 155.5, 356.0, 304.5, 356.0 ],
					"source" : [ "obj-7", 0 ]
				}

			}
, 			{
				"patchline" : 				{
					"color" : [ 0.131345, 0.999677, 0.023624, 1.0 ],
					"destination" : [ "obj-56", 0 ],
					"disabled" : 0,
					"hidden" : 0,
					"source" : [ "obj-70", 0 ]
				}

			}
, 			{
				"patchline" : 				{
					"destination" : [ "obj-120", 0 ],
					"disabled" : 0,
					"hidden" : 0,
					"source" : [ "obj-71", 1 ]
				}

			}
, 			{
				"patchline" : 				{
					"destination" : [ "obj-71", 0 ],
					"disabled" : 0,
					"hidden" : 0,
					"source" : [ "obj-72", 0 ]
				}

			}
, 			{
				"patchline" : 				{
					"destination" : [ "obj-39", 0 ],
					"disabled" : 0,
					"hidden" : 0,
					"source" : [ "obj-73", 0 ]
				}

			}
, 			{
				"patchline" : 				{
					"destination" : [ "obj-40", 0 ],
					"disabled" : 0,
					"hidden" : 0,
					"source" : [ "obj-74", 0 ]
				}

			}
, 			{
				"patchline" : 				{
					"destination" : [ "obj-72", 1 ],
					"disabled" : 0,
					"hidden" : 0,
					"source" : [ "obj-76", 0 ]
				}

			}
, 			{
				"patchline" : 				{
					"destination" : [ "obj-85", 1 ],
					"disabled" : 0,
					"hidden" : 0,
					"source" : [ "obj-81", 0 ]
				}

			}
, 			{
				"patchline" : 				{
					"color" : [ 0.990416, 0.500269, 0.032866, 1.0 ],
					"destination" : [ "obj-57", 0 ],
					"disabled" : 0,
					"hidden" : 0,
					"source" : [ "obj-83", 0 ]
				}

			}
, 			{
				"patchline" : 				{
					"color" : [ 0.000111, 0.00176, 0.998218, 1.0 ],
					"destination" : [ "obj-30", 0 ],
					"disabled" : 0,
					"hidden" : 0,
					"source" : [ "obj-89", 0 ]
				}

			}
, 			{
				"patchline" : 				{
					"destination" : [ "obj-7", 0 ],
					"disabled" : 0,
					"hidden" : 0,
					"source" : [ "obj-9", 0 ]
				}

			}
, 			{
				"patchline" : 				{
					"destination" : [ "obj-141", 0 ],
					"disabled" : 0,
					"hidden" : 0,
					"source" : [ "obj-92", 0 ]
				}

			}
, 			{
				"patchline" : 				{
					"destination" : [ "obj-91", 0 ],
					"disabled" : 0,
					"hidden" : 0,
					"source" : [ "obj-95", 1 ]
				}

			}
, 			{
				"patchline" : 				{
					"destination" : [ "obj-92", 0 ],
					"disabled" : 0,
					"hidden" : 0,
					"source" : [ "obj-95", 0 ]
				}

			}
, 			{
				"patchline" : 				{
					"destination" : [ "obj-47", 0 ],
					"disabled" : 0,
					"hidden" : 0,
					"source" : [ "obj-96", 0 ]
				}

			}
, 			{
				"patchline" : 				{
					"destination" : [ "obj-126", 0 ],
					"disabled" : 0,
					"hidden" : 0,
					"source" : [ "obj-97", 0 ]
				}

			}
, 			{
				"patchline" : 				{
					"color" : [ 0.999996, 0.999939, 0.041033, 1.0 ],
					"destination" : [ "obj-31", 0 ],
					"disabled" : 0,
					"hidden" : 0,
					"source" : [ "obj-98", 0 ]
				}

			}
, 			{
				"patchline" : 				{
					"color" : [ 0.986246, 0.007121, 0.027434, 1.0 ],
					"destination" : [ "obj-32", 0 ],
					"disabled" : 0,
					"hidden" : 0,
					"source" : [ "obj-99", 0 ]
				}

			}
 ],
		"parameters" : 		{
			"obj-133" : [ "live.tab", "live.tab", 0 ],
			"obj-126" : [ "live.toggle[2]", "live.toggle", 0 ],
			"obj-73" : [ "live.toggle", "live.toggle", 0 ],
			"obj-146" : [ "live.numbox[4]", "live.numbox[1]", 0 ],
			"obj-131" : [ "live.numbox[2]", "live.numbox[1]", 0 ],
			"obj-74" : [ "live.toggle[1]", "live.toggle", 0 ]
		}
,
		"dependency_cache" : [  ],
		"embedsnapshot" : 0,
		"styles" : [ 			{
				"name" : "newobjBlue-1",
				"default" : 				{
					"accentcolor" : [ 0.317647, 0.654902, 0.976471, 1.0 ]
				}
,
				"parentstyle" : "",
				"multi" : 0
			}
, 			{
				"name" : "newobjYellow-1",
				"default" : 				{
					"accentcolor" : [ 0.82517, 0.78181, 0.059545, 1.0 ],
					"fontsize" : [ 12.059008 ]
				}
,
				"parentstyle" : "",
				"multi" : 0
			}
, 			{
				"name" : "numberGold-1",
				"default" : 				{
					"accentcolor" : [ 0.764706, 0.592157, 0.101961, 1.0 ]
				}
,
				"parentstyle" : "",
				"multi" : 0
			}
 ]
	}

}
